<svg width="390" height="313" viewBox="0 0 390 313" fill="none" xmlns="http://www.w3.org/2000/svg">
<path d="M302.097 153.139L283.189 152.061C282.878 152.042 282.574 151.966 282.295 151.838C282.016 151.71 281.767 151.533 281.563 151.315C281.359 151.098 281.204 150.845 281.107 150.572C281.009 150.299 280.972 150.011 280.997 149.725L283.872 113.967C283.926 113.368 284.212 112.808 284.677 112.388C285.142 111.967 285.756 111.715 286.406 111.676L305.752 110.598C306.087 110.582 306.422 110.631 306.735 110.744C307.047 110.856 307.33 111.028 307.565 111.249C307.8 111.47 307.982 111.735 308.098 112.025C308.213 112.315 308.261 112.625 308.237 112.934L305.021 150.848C304.946 151.503 304.6 152.106 304.056 152.532C303.511 152.959 302.81 153.176 302.097 153.139V153.139Z" fill="#22272E"/>
<path d="M300.781 153.139L281.874 152.061C281.562 152.042 281.258 151.966 280.979 151.838C280.7 151.71 280.451 151.533 280.247 151.315C280.043 151.098 279.888 150.845 279.791 150.572C279.694 150.299 279.656 150.011 279.681 149.725L282.556 113.967C282.61 113.368 282.896 112.808 283.361 112.388C283.826 111.967 284.44 111.715 285.09 111.676L304.436 110.598C304.771 110.582 305.106 110.631 305.419 110.744C305.731 110.856 306.015 111.028 306.25 111.249C306.485 111.47 306.666 111.735 306.782 112.025C306.898 112.315 306.945 112.625 306.921 112.934L303.705 150.848C303.63 151.503 303.284 152.106 302.74 152.532C302.196 152.959 301.494 153.176 300.781 153.139V153.139Z" fill="#22272E"/>
<path d="M294.982 114.775L291.376 114.955C291.311 114.959 291.246 114.95 291.185 114.929C291.123 114.908 291.068 114.875 291.022 114.832C290.976 114.79 290.94 114.739 290.917 114.682C290.894 114.626 290.884 114.566 290.889 114.506V114.506C290.89 114.375 290.947 114.25 291.047 114.158C291.147 114.065 291.283 114.013 291.425 114.012L295.031 113.832C295.096 113.828 295.161 113.837 295.222 113.858C295.283 113.879 295.339 113.912 295.385 113.955C295.431 113.997 295.467 114.048 295.49 114.105C295.513 114.161 295.522 114.221 295.518 114.281V114.281C295.517 114.412 295.46 114.537 295.36 114.629C295.259 114.722 295.124 114.774 294.982 114.775V114.775Z" fill="#63737A"/>
<path d="M297.077 114.685H296.98C296.915 114.689 296.85 114.681 296.789 114.659C296.727 114.638 296.672 114.605 296.626 114.563C296.58 114.52 296.544 114.469 296.521 114.413C296.498 114.356 296.488 114.296 296.493 114.236V114.236C296.511 114.099 296.579 113.972 296.685 113.874C296.791 113.776 296.929 113.714 297.077 113.697H297.175C297.24 113.693 297.305 113.702 297.366 113.723C297.427 113.744 297.483 113.777 297.529 113.82C297.575 113.863 297.611 113.914 297.634 113.97C297.657 114.026 297.667 114.086 297.662 114.146V114.146C297.644 114.283 297.576 114.411 297.47 114.509C297.364 114.606 297.226 114.669 297.077 114.685V114.685Z" fill="#63737A"/>
<path d="M291.425 120.75L286.6 120.885C286.483 120.886 286.366 120.864 286.258 120.821C286.15 120.777 286.054 120.713 285.975 120.632C285.897 120.551 285.838 120.455 285.803 120.352C285.768 120.248 285.757 120.139 285.772 120.031V120.031C285.798 119.801 285.909 119.586 286.086 119.422C286.264 119.259 286.497 119.156 286.747 119.133L291.571 118.953C291.689 118.952 291.805 118.973 291.913 119.017C292.021 119.061 292.117 119.125 292.196 119.206C292.274 119.287 292.333 119.382 292.368 119.486C292.403 119.59 292.414 119.699 292.399 119.807V119.807C292.393 120.047 292.289 120.277 292.109 120.451C291.929 120.626 291.685 120.732 291.425 120.75Z" fill="#63737A"/>
<path d="M290.158 136.203L285.382 136.158C285.267 136.152 285.154 136.126 285.05 136.08C284.946 136.034 284.853 135.969 284.776 135.89C284.699 135.811 284.64 135.718 284.601 135.618C284.563 135.517 284.547 135.411 284.554 135.305V135.305C284.581 135.079 284.694 134.87 284.872 134.714C285.05 134.558 285.283 134.465 285.528 134.451L290.304 134.496C290.42 134.498 290.535 134.522 290.641 134.567C290.747 134.612 290.842 134.676 290.92 134.756C290.998 134.837 291.057 134.931 291.093 135.033C291.13 135.135 291.143 135.243 291.132 135.35V135.35C291.114 135.578 291.004 135.792 290.824 135.95C290.644 136.108 290.406 136.198 290.158 136.203V136.203Z" fill="#63737A"/>
<path d="M289.134 148.691L284.359 148.467C284.24 148.46 284.124 148.43 284.017 148.381C283.911 148.331 283.816 148.263 283.739 148.179C283.661 148.095 283.603 147.998 283.567 147.893C283.532 147.788 283.519 147.678 283.53 147.568C283.541 147.349 283.643 147.142 283.816 146.991C283.988 146.84 284.218 146.757 284.456 146.76L289.232 146.94C289.352 146.943 289.471 146.97 289.579 147.018C289.688 147.066 289.784 147.135 289.862 147.219C289.94 147.304 289.998 147.403 290.032 147.509C290.066 147.616 290.076 147.728 290.06 147.838V147.838C290.06 148.064 289.963 148.281 289.789 148.441C289.615 148.602 289.38 148.691 289.134 148.691V148.691Z" fill="#63737A"/>
<path d="M300.245 130.678L286.016 130.723C285.873 130.723 285.731 130.696 285.6 130.643C285.469 130.59 285.352 130.513 285.255 130.415C285.159 130.318 285.086 130.203 285.04 130.078C284.995 129.953 284.979 129.821 284.992 129.689L285.431 123.984C285.449 123.756 285.559 123.542 285.739 123.384C285.92 123.226 286.157 123.136 286.406 123.131L300.684 122.771C300.827 122.771 300.968 122.798 301.099 122.851C301.23 122.904 301.348 122.981 301.444 123.079C301.54 123.176 301.614 123.291 301.659 123.416C301.704 123.541 301.721 123.673 301.707 123.805L301.22 129.779C301.22 130.018 301.117 130.246 300.934 130.415C300.751 130.583 300.504 130.678 300.245 130.678Z" fill="#FF977A"/>
<path d="M289.817 143.885L284.944 143.705C284.804 143.701 284.668 143.67 284.542 143.615C284.416 143.56 284.304 143.481 284.212 143.384C284.121 143.287 284.052 143.174 284.01 143.051C283.968 142.929 283.954 142.8 283.969 142.672L284.262 139.258C284.268 139.14 284.299 139.024 284.354 138.917C284.409 138.81 284.486 138.715 284.581 138.635C284.676 138.556 284.787 138.495 284.908 138.455C285.029 138.415 285.157 138.398 285.285 138.404L290.207 138.494C290.49 138.508 290.756 138.624 290.948 138.818C291.139 139.011 291.241 139.266 291.23 139.527L290.938 143.031C290.893 143.274 290.755 143.494 290.55 143.65C290.344 143.807 290.084 143.89 289.817 143.885Z" fill="#FF977A"/>
<path d="M299.075 144.154L293.861 143.975C293.722 143.97 293.585 143.94 293.459 143.885C293.333 143.829 293.221 143.751 293.13 143.654C293.038 143.557 292.969 143.444 292.928 143.321C292.886 143.198 292.872 143.069 292.887 142.941L293.179 139.393C293.185 139.274 293.217 139.159 293.272 139.052C293.326 138.945 293.404 138.849 293.499 138.77C293.594 138.691 293.705 138.63 293.825 138.59C293.946 138.55 294.074 138.533 294.202 138.539L299.465 138.629C299.749 138.643 300.015 138.759 300.206 138.952C300.398 139.146 300.499 139.401 300.489 139.662L300.196 143.301C300.154 143.544 300.016 143.765 299.81 143.922C299.604 144.079 299.343 144.162 299.075 144.154Z" fill="#FF977A"/>
<path d="M182.415 97.8399L166.578 98.5137C166.286 98.5246 165.996 98.4751 165.728 98.3688C165.46 98.2625 165.221 98.1021 165.03 97.8995C164.838 97.6969 164.698 97.4572 164.62 97.1981C164.542 96.939 164.528 96.667 164.58 96.4024L167.211 72.1445C167.282 71.5292 167.568 70.9517 168.024 70.4983C168.481 70.0449 169.085 69.7399 169.745 69.6289L185.875 67.6973C187.288 67.5176 188.263 68.4609 188.117 69.7637L185.144 95.4141C185.059 96.0454 184.742 96.6309 184.245 97.0725C183.749 97.514 183.103 97.7849 182.415 97.8399V97.8399Z" fill="#22272E"/>
<path d="M181.245 97.3457L165.408 98.0195C165.116 98.0304 164.826 97.9809 164.558 97.8746C164.29 97.7683 164.051 97.608 163.86 97.4053C163.668 97.2027 163.528 96.963 163.45 96.7039C163.372 96.4448 163.358 96.1729 163.41 95.9082L166.041 71.6504C166.112 71.0351 166.398 70.4576 166.854 70.0041C167.311 69.5507 167.915 69.2457 168.575 69.1348L184.705 67.2031C186.118 67.0234 187.093 67.9668 186.947 69.2695L183.974 94.9199C183.898 95.5545 183.584 96.1447 183.085 96.5878C182.587 97.031 181.936 97.2991 181.245 97.3457V97.3457Z" fill="#22272E"/>
<path d="M181.976 75.379L169.647 76.5919C169.555 76.6011 169.462 76.5912 169.375 76.5628C169.287 76.5345 169.208 76.4885 169.143 76.4281C169.077 76.3678 169.027 76.2946 168.997 76.2141C168.966 76.1336 168.955 76.0478 168.965 75.963L169.257 73.1778C169.267 73.0495 169.326 72.9287 169.425 72.8378C169.523 72.7469 169.654 72.6921 169.793 72.6837L182.171 71.336C182.263 71.3268 182.356 71.3367 182.444 71.365C182.531 71.3933 182.61 71.4394 182.676 71.4997C182.741 71.5601 182.791 71.6332 182.822 71.7137C182.853 71.7942 182.863 71.8801 182.853 71.9649L182.512 74.8848C182.511 75.0155 182.454 75.1405 182.354 75.2329C182.253 75.3254 182.118 75.3778 181.976 75.379Z" fill="#F4C2C9"/>
<path d="M170.524 83.1055L168.916 83.2403C168.824 83.2495 168.731 83.2396 168.644 83.2113C168.557 83.1829 168.477 83.1369 168.412 83.0765C168.346 83.0162 168.296 82.9431 168.266 82.8626C168.235 82.7821 168.224 82.6962 168.234 82.6114L168.429 80.9942C168.438 80.8659 168.498 80.7451 168.596 80.6542C168.695 80.5633 168.826 80.5085 168.965 80.5001L170.573 80.3653C170.665 80.3561 170.758 80.366 170.846 80.3943C170.933 80.4227 171.012 80.4687 171.078 80.529C171.143 80.5894 171.193 80.6625 171.224 80.743C171.255 80.8235 171.265 80.9094 171.255 80.9942L171.06 82.6114C171.051 82.7397 170.992 82.8605 170.893 82.9514C170.795 83.0423 170.664 83.0971 170.524 83.1055V83.1055Z" fill="#B0D7C0"/>
<path d="M181.197 82.2519L179.442 82.3866C179.35 82.3959 179.257 82.386 179.17 82.3576C179.082 82.3293 179.003 82.2833 178.938 82.2229C178.872 82.1626 178.822 82.0894 178.791 82.0089C178.761 81.9284 178.75 81.8426 178.76 81.7577L178.955 80.0507C178.964 79.9224 179.023 79.8016 179.122 79.7107C179.221 79.6198 179.352 79.565 179.491 79.5566L181.245 79.3769C181.337 79.3676 181.43 79.3776 181.518 79.4059C181.605 79.4342 181.684 79.4803 181.75 79.5406C181.815 79.601 181.865 79.6741 181.896 79.7546C181.927 79.8351 181.937 79.921 181.927 80.0058L181.733 81.7128C181.725 81.846 181.667 81.9727 181.569 82.071C181.472 82.1694 181.34 82.2333 181.197 82.2519V82.2519Z" fill="#B0D7C0"/>
<path d="M175.788 82.6563L174.131 82.7911C174.039 82.8003 173.946 82.7904 173.858 82.7621C173.771 82.7337 173.692 82.6877 173.626 82.6273C173.561 82.567 173.511 82.4939 173.48 82.4134C173.449 82.3329 173.438 82.247 173.448 82.1622L173.643 80.5001C173.653 80.3718 173.712 80.2509 173.811 80.16C173.909 80.0691 174.04 80.0144 174.179 80.0059L175.836 79.8711C175.928 79.8619 176.021 79.8718 176.109 79.9002C176.196 79.9285 176.275 79.9745 176.341 80.0349C176.406 80.0952 176.456 80.1684 176.487 80.2489C176.518 80.3294 176.529 80.4152 176.518 80.5001L176.324 82.1622C176.322 82.2929 176.265 82.4179 176.165 82.5103C176.065 82.6027 175.929 82.6551 175.788 82.6563Z" fill="#B0D7C0"/>
<path d="M169.891 88.6309L168.283 88.7208C168.192 88.7268 168.1 88.7146 168.014 88.6851C167.929 88.6557 167.851 88.6095 167.786 88.5499C167.721 88.4903 167.671 88.4185 167.639 88.3395C167.607 88.2604 167.594 88.176 167.601 88.0919L167.796 86.4747C167.816 86.3425 167.885 86.221 167.992 86.1309C168.099 86.0407 168.236 85.9876 168.38 85.9805L169.989 85.8458C170.081 85.8365 170.174 85.8464 170.261 85.8748C170.348 85.9031 170.428 85.9492 170.493 86.0095C170.559 86.0698 170.609 86.143 170.639 86.2235C170.67 86.304 170.681 86.3898 170.671 86.4747L170.476 88.0919C170.466 88.2317 170.401 88.3634 170.293 88.4625C170.186 88.5616 170.043 88.6215 169.891 88.6309V88.6309Z" fill="#B0D7C0"/>
<path d="M180.563 87.9571L178.809 88.0919C178.718 88.0979 178.626 88.0857 178.54 88.0562C178.455 88.0267 178.377 87.9806 178.312 87.921C178.247 87.8613 178.197 87.7896 178.165 87.7105C178.133 87.6315 178.12 87.5471 178.127 87.4629L178.322 85.8008C178.342 85.6687 178.411 85.5472 178.518 85.457C178.624 85.3669 178.762 85.3137 178.906 85.3067L180.661 85.1719C180.753 85.1627 180.846 85.1726 180.933 85.2009C181.02 85.2293 181.1 85.2753 181.165 85.3357C181.231 85.396 181.281 85.4691 181.311 85.5496C181.342 85.6302 181.353 85.716 181.343 85.8008L181.148 87.5079C181.101 87.6233 181.023 87.7255 180.92 87.8043C180.818 87.8831 180.695 87.9358 180.563 87.9571V87.9571Z" fill="#B0D7C0"/>
<path d="M175.154 88.3164L173.497 88.4063C173.406 88.4123 173.314 88.4002 173.229 88.3707C173.143 88.3412 173.065 88.2951 173 88.2354C172.936 88.1758 172.886 88.104 172.854 88.025C172.822 87.946 172.809 87.8615 172.815 87.7774L173.01 86.1153C173.03 85.9832 173.1 85.8616 173.206 85.7715C173.313 85.6813 173.45 85.6282 173.595 85.6212L175.252 85.4864C175.344 85.4771 175.437 85.4871 175.524 85.5154C175.611 85.5437 175.691 85.5898 175.756 85.6501C175.822 85.7105 175.872 85.7836 175.902 85.8641C175.933 85.9446 175.944 86.0304 175.934 86.1153L175.739 87.7774C175.713 87.9114 175.642 88.0348 175.538 88.1312C175.433 88.2275 175.3 88.2921 175.154 88.3164V88.3164Z" fill="#B0D7C0"/>
<path d="M169.258 94.1563L167.698 94.2461C167.609 94.2508 167.521 94.2373 167.438 94.2067C167.356 94.1761 167.282 94.1291 167.221 94.069C167.161 94.0089 167.115 93.9373 167.088 93.8592C167.061 93.7811 167.053 93.6985 167.065 93.6172L167.26 92C167.28 91.8679 167.349 91.7464 167.456 91.6562C167.563 91.5661 167.7 91.5129 167.844 91.5059L169.404 91.416C169.494 91.4069 169.585 91.4173 169.669 91.4465C169.754 91.4756 169.831 91.5225 169.892 91.5837C169.954 91.6448 169.999 91.7183 170.024 91.7984C170.049 91.8785 170.054 91.9629 170.037 92.0449L169.842 93.6621C169.83 93.7972 169.763 93.923 169.655 94.0146C169.546 94.1062 169.405 94.1567 169.258 94.1563V94.1563Z" fill="#B0D7C0"/>
<path d="M179.881 93.6172L178.126 93.7071C178.038 93.7117 177.949 93.6983 177.866 93.6677C177.784 93.637 177.71 93.59 177.649 93.53C177.589 93.4699 177.543 93.3982 177.516 93.3201C177.489 93.242 177.481 93.1594 177.493 93.0781L177.688 91.416C177.708 91.2839 177.777 91.1624 177.884 91.0722C177.991 90.9821 178.128 90.9289 178.273 90.9219L180.027 90.8321C180.117 90.8229 180.208 90.8334 180.293 90.8625C180.377 90.8916 180.454 90.9386 180.515 90.9997C180.577 91.0608 180.622 91.1343 180.647 91.2144C180.672 91.2945 180.677 91.379 180.66 91.461L180.466 93.168C180.435 93.2915 180.361 93.4023 180.255 93.4835C180.15 93.5646 180.018 93.6116 179.881 93.6172Z" fill="#FFE779"/>
<path d="M174.521 93.8868L172.864 93.9766C172.775 93.9813 172.686 93.9678 172.604 93.9372C172.521 93.9066 172.447 93.8596 172.387 93.7995C172.326 93.7394 172.281 93.6678 172.254 93.5897C172.227 93.5116 172.219 93.429 172.23 93.3477L172.425 91.7305C172.445 91.5984 172.515 91.4768 172.621 91.3867C172.728 91.2965 172.865 91.2434 173.01 91.2364L174.667 91.1465C174.757 91.1374 174.848 91.1478 174.933 91.1769C175.017 91.206 175.094 91.253 175.155 91.3141C175.217 91.3753 175.262 91.4488 175.287 91.5289C175.312 91.609 175.317 91.6934 175.3 91.7754L175.105 93.4375C175.075 93.5611 175.001 93.6719 174.895 93.753C174.79 93.8342 174.658 93.8811 174.521 93.8868Z" fill="#FFE779"/>
<path d="M197.765 97.5703L274.077 90.2929C274.407 90.2623 274.741 90.299 275.054 90.4004C275.367 90.5018 275.653 90.6655 275.89 90.8797C276.127 91.094 276.31 91.3537 276.426 91.6404C276.542 91.9272 276.589 92.2339 276.562 92.539L270.032 161C269.958 161.81 269.545 162.562 268.882 163.098C268.219 163.634 267.356 163.913 266.475 163.875L192.356 160.191C191.756 160.159 191.194 159.909 190.793 159.497C190.391 159.085 190.182 158.544 190.212 157.99L194.695 100.535C194.752 99.7886 195.09 99.0839 195.65 98.5426C196.211 98.0013 196.959 97.6574 197.765 97.5703Z" fill="#F8AB5D"/>
<path d="M194.987 96.8067L272.176 89.4395C272.512 89.4062 272.851 89.4425 273.169 89.5458C273.487 89.6492 273.775 89.8169 274.014 90.0367C274.252 90.2564 274.434 90.5227 274.546 90.8158C274.658 91.1089 274.698 91.4215 274.662 91.7305L268.083 160.955C268.017 161.777 267.6 162.541 266.924 163.079C266.248 163.618 265.368 163.888 264.477 163.83L189.481 160.102C189.178 160.088 188.882 160.019 188.609 159.898C188.337 159.776 188.093 159.606 187.893 159.397C187.693 159.187 187.541 158.943 187.445 158.678C187.35 158.413 187.313 158.134 187.337 157.856L191.869 99.7266C191.954 98.9866 192.309 98.2952 192.875 97.7649C193.442 97.2347 194.186 96.8969 194.987 96.8067Z" fill="#FC653C"/>
<path d="M202.979 111.721L199.47 111.9L199.032 117.92L202.492 117.83L202.979 111.721Z" fill="#6DAFA7"/>
<path d="M199.032 117.92L198.788 120.885L202.248 120.795L202.492 117.83L199.032 117.92Z" fill="#B0D7C0"/>
<path d="M210.532 103.545L207.024 103.77L206.439 111.541L209.899 111.406L210.532 103.545Z" fill="#6DAFA7"/>
<path d="M206.439 111.541L205.708 120.705L209.168 120.615L209.899 111.406L206.439 111.541Z" fill="#B0D7C0"/>
<path d="M213.749 106.375L213.359 111.227L216.819 111.047L217.209 106.15L213.749 106.375Z" fill="#6DAFA7"/>
<path d="M213.359 111.227L212.628 120.57L216.088 120.48L216.819 111.047L213.359 111.227Z" fill="#B0D7C0"/>
<path d="M223.738 110.688L220.278 110.867L220.035 114.281L223.495 114.102L223.738 110.688Z" fill="#6DAFA7"/>
<path d="M220.035 114.281L219.547 120.391L223.007 120.301L223.495 114.102L220.035 114.281Z" fill="#B0D7C0"/>
<path d="M231.097 105.252L230.658 110.373L230.414 113.742L226.955 113.922L227.198 110.508L227.637 105.477L231.097 105.252Z" fill="#6DAFA7"/>
<path d="M226.954 113.922L226.418 120.211L229.878 120.166L230.414 113.742L226.954 113.922Z" fill="#B0D7C0"/>
<path d="M258.922 101.568L252.733 110.598L247.324 103.814C249.419 102.193 252.005 101.204 254.731 100.984C256.157 100.889 257.589 101.089 258.922 101.568V101.568Z" fill="#22272E"/>
<path d="M263.746 109.879L252.733 110.598L258.922 101.568C262.333 102.826 264.331 105.971 263.746 109.879Z" fill="#F4C2C9"/>
<path d="M263.746 109.879C263.746 110.014 263.697 110.148 263.697 110.283C262.674 115.629 257.265 120.076 251.563 120.48L252.733 110.598L263.746 109.879Z" fill="#FF977A"/>
<path d="M252.733 110.598L251.563 120.48C251.256 120.518 250.947 120.533 250.637 120.525C244.838 120.525 241.281 116.168 242.499 110.912C243.203 108.129 244.903 105.645 247.324 103.859L252.733 110.598Z" fill="white"/>
<path d="M262.187 128.162L259.653 150.937L195.962 149.859L196.059 148.107L209.85 139.348C210.158 139.146 210.528 139.042 210.906 139.05C211.283 139.058 211.648 139.178 211.946 139.393L217.111 142.896C217.302 143.027 217.52 143.122 217.752 143.175C217.983 143.228 218.224 143.238 218.459 143.204C218.695 143.171 218.921 143.095 219.125 142.98C219.328 142.866 219.505 142.715 219.645 142.537L224.762 136.248C224.933 136.037 225.155 135.867 225.412 135.751C225.668 135.635 225.951 135.577 226.236 135.581C226.521 135.585 226.802 135.652 227.054 135.776C227.306 135.9 227.522 136.077 227.685 136.293L232.217 142.088C232.358 142.271 232.538 142.427 232.746 142.544C232.953 142.662 233.185 142.74 233.426 142.774C233.667 142.808 233.913 142.796 234.149 142.74C234.385 142.684 234.607 142.584 234.8 142.447C235.107 142.233 235.479 142.113 235.864 142.105C236.249 142.097 236.627 142.201 236.944 142.402L240.16 144.514C240.361 144.644 240.588 144.735 240.827 144.783C241.067 144.831 241.314 144.834 241.555 144.792C241.796 144.75 242.025 144.664 242.229 144.539C242.433 144.414 242.608 144.253 242.743 144.064L249.955 133.822C250.091 133.634 250.265 133.472 250.469 133.347C250.674 133.222 250.903 133.136 251.144 133.094C251.384 133.053 251.632 133.056 251.871 133.104C252.111 133.151 252.338 133.243 252.538 133.373L254.633 134.766C254.825 134.897 255.042 134.992 255.274 135.045C255.506 135.099 255.746 135.109 255.982 135.075C256.218 135.042 256.444 134.966 256.648 134.851C256.851 134.736 257.028 134.585 257.167 134.406L262.187 128.162Z" fill="#FF977A"/>
<path d="M215.844 135.395H213.066C213.002 135.393 212.938 135.404 212.88 135.427C212.821 135.451 212.768 135.485 212.725 135.529L212.092 136.113C212 136.196 211.878 136.242 211.75 136.242C211.623 136.242 211.5 136.196 211.409 136.113L210.922 135.529C210.879 135.485 210.826 135.451 210.767 135.427C210.709 135.404 210.645 135.393 210.581 135.395H207.901C207.844 135.397 207.788 135.388 207.736 135.368C207.684 135.348 207.638 135.318 207.6 135.279C207.563 135.24 207.535 135.194 207.52 135.144C207.504 135.094 207.501 135.041 207.511 134.99L207.901 130.139C207.91 130.022 207.964 129.913 208.053 129.83C208.143 129.748 208.262 129.698 208.388 129.689L216.331 129.42C216.447 129.42 216.559 129.463 216.641 129.538C216.724 129.614 216.77 129.717 216.77 129.824L216.331 134.9C216.338 134.963 216.33 135.026 216.309 135.086C216.288 135.146 216.253 135.201 216.207 135.247C216.161 135.294 216.105 135.331 216.042 135.357C215.98 135.382 215.912 135.395 215.844 135.395V135.395Z" fill="white"/>
<path d="M241.866 137.82L239.089 137.775C239.025 137.774 238.961 137.785 238.902 137.808C238.843 137.832 238.79 137.866 238.747 137.91L238.114 138.494C238.069 138.538 238.014 138.573 237.953 138.595C237.892 138.617 237.827 138.627 237.761 138.622C237.696 138.618 237.632 138.6 237.575 138.57C237.518 138.54 237.469 138.499 237.432 138.449L236.944 137.865C236.901 137.821 236.849 137.787 236.79 137.763C236.731 137.74 236.667 137.729 236.603 137.73L233.972 137.686C233.728 137.686 233.582 137.506 233.582 137.236L233.972 132.34C233.978 132.23 234.025 132.125 234.105 132.044C234.185 131.962 234.293 131.908 234.41 131.891L242.354 131.711C242.415 131.712 242.476 131.725 242.532 131.748C242.587 131.772 242.638 131.806 242.679 131.848C242.72 131.89 242.751 131.939 242.771 131.993C242.79 132.047 242.797 132.104 242.792 132.16L242.354 137.371C242.358 137.431 242.348 137.491 242.325 137.548C242.302 137.604 242.267 137.655 242.22 137.698C242.174 137.74 242.119 137.773 242.058 137.794C241.997 137.815 241.931 137.824 241.866 137.82V137.82Z" fill="#F4C2C9"/>
<path d="M108.393 267.42C108.198 268.004 107.76 270.34 107.419 272.496C103.776 272.998 100.054 272.579 96.6494 271.283C96.8931 269.037 97.1367 266.701 97.1367 266.701C97.1367 265.443 108.783 266.342 108.393 267.42Z" fill="#22272E"/>
<path d="M107.419 272.451C107.126 274.338 106.834 276 106.834 276C106.834 276 105.518 278.83 102.205 278.83C98.8909 278.83 96.2107 276.27 96.2594 275.191C96.3082 274.697 96.4544 272.99 96.6493 271.238C100.052 272.54 103.776 272.959 107.419 272.451Z" fill="#F4C2C9"/>
<path d="M96.3079 274.338C96.7848 274.826 97.2891 275.291 97.8185 275.73C98.3545 276.18 100.011 274.787 102.35 275.057C104.689 275.326 105.42 276.18 105.42 276.18C105.961 276.079 106.474 275.881 106.931 275.596C106.976 276.719 107.223 277.827 107.662 278.875C108.393 280.627 112.097 285.748 112.097 286.736C112.097 287.725 111.853 288.488 111.073 288.803C110.293 289.117 105.128 289.162 100.791 289.252C96.4541 289.342 93.0917 289.566 92.6044 287.994C92.117 286.422 94.115 281.525 94.9434 278.516C95.7718 275.506 95.6256 274.383 96.3079 274.338Z" fill="#22272E"/>
<path d="M97.0391 282.649C97.0391 282.649 102.253 280.088 107.224 282.649" stroke="white" stroke-width="1.8" stroke-linecap="round" stroke-linejoin="round"/>
<path d="M98.0137 280.133C100.721 279.424 103.59 279.424 106.298 280.133" stroke="white" stroke-width="1.8" stroke-linecap="round" stroke-linejoin="round"/>
<path d="M158.976 270.519C153.42 272.271 147.67 271.193 147.719 271.238C147.524 268.723 147.28 266.072 147.28 266.072C148.011 264.5 158.488 263.781 158.586 264.455C158.586 264.814 158.781 267.779 158.976 270.519Z" fill="#22272E"/>
<path d="M159.268 275.281C159.268 275.281 158.537 277.393 155.369 278.471C152.202 279.549 148.157 276.629 148.109 275.775C148.06 275.416 147.914 273.35 147.719 271.238C147.719 271.193 153.42 272.271 158.976 270.52C159.122 272.99 159.268 275.281 159.268 275.281Z" fill="#F4C2C9"/>
<path d="M148.011 275.146C147.67 275.146 147.426 275.596 147.231 278.426C147.036 281.256 146.062 287.5 147.231 288.443C148.401 289.387 171.743 289.117 174.423 288.937C177.103 288.758 178.565 287.141 177.737 286.062C176.908 284.984 171.158 283.008 166.09 279.863C161.022 276.719 159.804 276.045 159.219 275.281C159.219 275.281 159.511 272.721 158.001 273.125C156.49 273.529 155.467 276.853 153.518 277.303C151.568 277.752 151.325 274.967 148.011 275.146Z" fill="#22272E"/>
<path d="M167.211 279.953C167.211 279.953 165.895 279.594 162.923 282.514" stroke="white" stroke-width="1.8" stroke-linecap="round" stroke-linejoin="round"/>
<path d="M163.995 278.021C163.995 278.021 161.656 277.932 158.976 281.121" stroke="white" stroke-width="1.8" stroke-linecap="round" stroke-linejoin="round"/>
<path d="M98.501 271.867L98.7926 270.07" stroke="#63737A" stroke-width="1.8" stroke-linecap="round" stroke-linejoin="round"/>
<path d="M101.863 272.541L102.155 270.744" stroke="#63737A" stroke-width="1.8" stroke-linecap="round" stroke-linejoin="round"/>
<path d="M105.567 272.676L105.907 271.059" stroke="#63737A" stroke-width="1.8" stroke-linecap="round" stroke-linejoin="round"/>
<path d="M149.912 271.463L149.766 269.576" stroke="#63737A" stroke-width="1.8" stroke-linecap="round" stroke-linejoin="round"/>
<path d="M153.957 271.418L153.81 269.352" stroke="#63737A" stroke-width="1.8" stroke-linecap="round" stroke-linejoin="round"/>
<path d="M157.612 270.879L157.465 268.947" stroke="#63737A" stroke-width="1.8" stroke-linecap="round" stroke-linejoin="round"/>
<path d="M95.2362 166.84C94.4023 170.384 93.9453 173.995 93.8717 177.621C93.7255 183.775 98.9397 203.047 100.84 209.561C102.741 216.074 102.351 217.107 102.058 218.365C101.766 219.623 98.8422 229.596 97.8676 239.928C96.893 250.26 93.3844 258.57 93.7742 261.76C94.3103 266.072 96.3082 267.33 97.1367 267.824C97.9651 268.318 104.787 270.34 109.417 269.352C109.417 269.352 114.339 266.477 115.264 262.434C116.19 258.391 115.654 253.494 118.822 240.287C121.989 227.08 123.451 221.645 123.89 216.389C124.133 213.244 124.182 204.26 124.231 197.387C124.28 192.715 124.28 188.986 124.328 188.627C124.474 187.729 126.862 188.762 128.129 185.887C128.665 184.584 128.958 182.113 129.006 179.463C129.104 176.094 128.86 172.41 128.373 170.389C127.593 166.66 96.0158 162.887 95.2362 166.84Z" fill="#22272E"/>
<path d="M162.094 262.568C161.266 264.455 159.755 266.611 158.391 267.105C157.026 267.6 150.886 268.363 147.768 268.094C147.768 268.094 142.554 266.701 142.018 263.063C141.481 259.424 142.407 255.381 140.653 247.205C138.899 239.029 137.388 224.564 136.95 220.297C136.511 216.029 126.96 203.316 122.477 195.635C117.993 187.953 113.169 173.893 117.165 170.613C121.161 167.334 135.439 165.852 139.678 168.502C139.678 168.502 144.6 179.553 149.522 192.76C154.054 204.889 154.98 208.977 155.613 212.481C155.655 212.799 155.72 213.114 155.808 213.424C156.003 214.502 156.247 217.287 156.588 220.881C157.368 230 158.293 244.15 158.683 247.385C159.219 251.877 162.923 260.682 162.094 262.568Z" fill="#22272E"/>
<path d="M121.599 189.301C124.77 188.247 128.03 187.436 131.345 186.875" stroke="#63737A" stroke-width="1.8" stroke-linecap="round" stroke-linejoin="round"/>
<path d="M121.338 221.775C122.059 218.517 119.822 215.345 116.34 214.69C112.859 214.035 109.452 216.145 108.73 219.403C108.009 222.661 110.247 225.833 113.728 226.488C117.21 227.143 120.617 225.033 121.338 221.775Z" stroke="#63737A" stroke-width="1.80036" stroke-linecap="round" stroke-linejoin="round"/>
<path d="M156.588 220.836C155.993 221.524 155.237 222.08 154.376 222.461C153.515 222.842 152.572 223.039 151.617 223.037C149.898 223.043 148.247 222.419 147.027 221.303C145.807 220.187 145.118 218.67 145.112 217.085C145.105 215.5 145.782 213.978 146.993 212.854C148.204 211.729 149.85 211.094 151.569 211.088C153.046 211.089 154.477 211.565 155.613 212.436" stroke="#63737A" stroke-width="1.8" stroke-linecap="round" stroke-linejoin="round"/>
<path d="M96.3569 188.088C98.0812 186.624 99.4567 184.846 100.396 182.866C101.336 180.887 101.819 178.749 101.815 176.588C99.9821 176.493 98.1586 176.283 96.3569 175.959" stroke="#63737A" stroke-width="1.8" stroke-linecap="round" stroke-linejoin="round"/>
<path d="M124.23 197.387C124.279 192.715 124.279 188.986 124.328 188.627C124.474 187.729 126.862 188.762 128.129 185.887C128.665 184.584 128.957 182.113 129.006 179.463" stroke="#63737A" stroke-width="1.8" stroke-linecap="round" stroke-linejoin="round"/>
<path d="M138.606 115.404C138.606 115.404 142.602 115.584 149.034 127.443C155.467 139.303 157.757 143.57 157.757 143.57C157.757 143.57 161.997 142.627 168.916 141.594C175.836 140.561 185.582 139.258 185.582 139.258C185.582 139.258 188.214 139.303 189.334 142.762C189.62 143.637 189.662 144.565 189.458 145.46C189.254 146.355 188.809 147.188 188.165 147.883C187.922 148.165 187.603 148.382 187.239 148.512C184.266 149.68 166.918 156.418 161.022 157.586C154.541 158.844 151.373 158.664 145.623 151.387C139.873 144.109 135.341 138.449 133.246 135.529C131.15 132.475 129.64 115.854 138.606 115.404Z" fill="#FF977A"/>
<path d="M149.57 155.52C149.57 155.52 149.229 153.139 154.248 153.139C159.268 153.139 161.85 156.598 160.632 157.586" stroke="#22272E" stroke-width="1.8" stroke-linecap="round" stroke-linejoin="round"/>
<path d="M157.757 143.525C157.757 143.525 155.662 144.424 155.223 145.771" stroke="#22272E" stroke-width="1.8" stroke-linecap="round" stroke-linejoin="round"/>
<path d="M185.826 139.617C185.826 139.617 187.97 138.898 188.506 138.629C189.042 138.359 190.212 136.473 191.186 135.305C192.161 134.137 194.938 133.463 195.718 133.598C195.93 133.624 196.134 133.689 196.318 133.789C196.503 133.89 196.663 134.023 196.79 134.182C196.79 134.182 199.227 133.373 200.884 132.744C202.54 132.115 205.61 130.723 206.049 131.846C206.293 132.52 204.392 133.508 203.076 134.182C201.468 135.035 200.396 135.664 200.396 135.664C200.652 135.803 200.871 135.991 201.039 136.216C201.208 136.441 201.321 136.697 201.371 136.967C201.566 137.91 202.102 138.943 201.127 140.381C200.835 140.785 201.956 141.908 201.078 142.941C199.568 144.603 195.913 145.457 193.964 145.996C192.015 146.535 187.434 146.805 187.434 146.805C187.434 146.805 185.972 146.49 185.339 143.57C184.705 140.65 185.826 139.617 185.826 139.617Z" fill="#F4C2C9"/>
<path d="M196.791 134.182C196.791 134.182 197.132 134.99 197.521 136.203C197.911 137.416 198.204 138.359 197.18 138.404C196.157 138.449 195.231 137.012 194.841 136.293" stroke="#E26E85" stroke-width="1.8" stroke-linecap="round" stroke-linejoin="round"/>
<path d="M195.523 137.326C195.523 137.326 196.644 139.393 194.062 141.189" stroke="#E26E85" stroke-width="1.8" stroke-linecap="round" stroke-linejoin="round"/>
<path d="M200.445 135.664L197.716 136.832" stroke="#E26E85" stroke-width="1.8" stroke-linecap="round" stroke-linejoin="round"/>
<path d="M196.352 138.135C196.352 138.135 195.865 138.854 196.352 139.258C196.839 139.662 199.519 138.764 201.469 137.73" stroke="#E26E85" stroke-width="1.8" stroke-linecap="round" stroke-linejoin="round"/>
<path d="M196.79 139.348C196.562 139.459 196.389 139.647 196.307 139.873C196.226 140.099 196.242 140.345 196.352 140.561C196.742 141.369 198.837 141.055 201.127 140.381" stroke="#E26E85" stroke-width="1.8" stroke-linecap="round" stroke-linejoin="round"/>
<path d="M197.229 141.055C197.229 141.055 196.011 141.189 196.644 142.313C197.034 142.986 199.373 142.762 199.86 142.941" stroke="#E26E85" stroke-width="1.8" stroke-linecap="round" stroke-linejoin="round"/>
<path d="M182.999 140.021C182.61 140.65 182.122 141.863 182.463 144.02C182.559 144.95 182.88 145.849 183.403 146.65C183.926 147.451 184.637 148.133 185.485 148.646" stroke="#22272E" stroke-width="1.8" stroke-linecap="round" stroke-linejoin="round"/>
<path d="M122.817 98.963C122.817 98.963 121.258 106.195 120.381 108.172C119.504 110.148 124.279 113.248 129.055 113.428C133.83 113.607 133.343 111.047 133.343 111.047L134.756 103.859C134.756 103.904 124.523 97.3008 122.817 98.963Z" fill="#F4C2C9"/>
<path d="M124.961 101.119C124.279 106.6 128.567 109.25 133.343 111.316V111.047L134.123 107.229C130.565 106.15 127.447 103.814 124.961 101.119Z" fill="#E26E85"/>
<path d="M102.351 113.473C103.423 110.553 107.516 108.801 110.83 109.07C114.241 109.34 120.771 109.43 127.057 111.227C137.778 114.281 140.36 116.078 140.994 116.617C144.551 119.762 144.21 124.434 142.163 137.326C140.848 145.816 139.727 147.973 140.019 152.15C140.312 156.328 141.14 163.74 141.676 165.268C142.212 166.795 140.848 169.445 139.678 170.389C138.509 171.332 129.055 173.309 120.283 173.129C111.512 172.949 97.7212 170.748 95.5283 169.4C93.3355 168.053 91.7761 165.717 92.2634 163.695C92.8693 160.605 93.65 157.546 94.6024 154.531C95.9669 150.264 96.0644 144.693 98.2085 135.754C99.8653 129.15 100.109 119.582 102.351 113.473Z" fill="#FC653C"/>
<path d="M115.751 146.4C121.171 147.454 126.685 148.041 132.222 148.152C132.583 148.161 132.928 148.288 133.196 148.511C133.464 148.733 133.637 149.036 133.684 149.365C133.952 151.179 134.82 152.873 136.17 154.217C136.296 154.335 136.395 154.476 136.462 154.63C136.529 154.784 136.562 154.949 136.559 155.115C136.608 157.002 136.706 163.381 135.341 164.369C133.782 165.447 117.213 166.436 106.931 163.785C106.604 163.708 106.313 163.535 106.102 163.292C105.891 163.049 105.771 162.749 105.762 162.438C105.81 160.596 105.908 156.732 106.249 154.307C106.297 154.066 106.405 153.838 106.566 153.643C106.727 153.448 106.936 153.291 107.175 153.184C108.783 152.51 112.487 150.713 113.802 147.344C113.959 147.003 114.239 146.724 114.594 146.552C114.95 146.38 115.358 146.326 115.751 146.4V146.4Z" stroke="#F8AB5D" stroke-width="1.8" stroke-linecap="round" stroke-linejoin="round"/>
<path d="M119.747 107.094C119.798 106.992 119.873 106.902 119.968 106.833C120.063 106.763 120.175 106.716 120.294 106.694C120.413 106.672 120.536 106.676 120.653 106.707C120.77 106.737 120.877 106.793 120.966 106.869C121.892 107.768 123.89 109.115 127.496 109.744C133.002 110.688 133.538 109.924 133.538 109.924C133.538 109.924 134.415 110.193 134.513 110.867C134.542 111.957 134.41 113.045 134.123 114.102C133.831 114.955 129.737 115.045 126.472 114.416C123.587 113.929 120.925 112.662 118.822 110.777C118.655 110.63 118.543 110.438 118.499 110.229C118.456 110.02 118.483 109.804 118.578 109.609C118.87 108.936 119.358 107.947 119.747 107.094Z" fill="#FF977A"/>
<path d="M143.772 90.4278C143.819 92.3532 143.489 94.2707 142.797 96.0879C141.822 98.4239 140.214 104.938 137.047 107.049C133.879 109.16 126.96 108.756 123.938 103.32C120.917 97.8848 121.892 92.1797 123.451 87.5977C125.01 83.0156 131.443 81.3535 137.047 83.2403C142.651 85.127 143.772 88.4063 143.772 90.4278Z" fill="#F4C2C9"/>
<path d="M123.305 93.5723C123.637 93.9741 123.915 94.4115 124.133 94.875C124.572 95.8184 125.498 95.2793 125.839 93.5723C126.18 91.8653 126.96 90.6524 127.544 90.7422C128.295 90.9078 129.085 90.8335 129.784 90.5316C130.484 90.2296 131.051 89.7179 131.394 89.0801C132.612 87.0137 133.148 87.3281 133.148 87.3281C133.148 87.3281 134.123 85.1719 136.657 88.2715C139.191 91.3711 140.799 93.7969 143.82 93.3028C146.842 92.8086 149.522 88.2715 147.232 83.9141C144.941 79.5567 137.729 78.5235 132.369 79.8262C127.008 81.1289 124.231 80.0508 121.015 82.5664C117.798 85.0821 118.578 87.7324 118.383 90.6973C118.188 93.6621 116.531 95.2344 118.724 97.8848C120.917 100.535 120.332 103.006 121.551 104.488C121.551 104.488 122.866 100.58 122.72 97.75C122.574 94.9199 123.305 93.5723 123.305 93.5723Z" fill="#22272E"/>
<path d="M137.778 96.043C137.743 97.1724 137.237 98.246 136.366 99.0407C135.495 99.8354 134.325 100.29 133.1 100.311C132.489 100.306 131.886 100.189 131.326 99.9662C130.765 99.7433 130.259 99.4193 129.836 99.0132C129.414 98.607 129.084 98.127 128.866 97.6015C128.648 97.0759 128.547 96.5154 128.568 95.9531C128.564 95.3719 128.684 94.7957 128.922 94.2574C129.16 93.7192 129.511 93.2295 129.955 92.8164C130.398 92.4033 130.926 92.0749 131.507 91.8501C132.089 91.6252 132.713 91.5082 133.343 91.5059C133.96 91.5287 134.566 91.6649 135.124 91.9067C135.683 92.1484 136.184 92.4907 136.597 92.9134C137.01 93.3362 137.328 93.8308 137.53 94.3683C137.733 94.9057 137.817 95.4751 137.778 96.043V96.043Z" stroke="#22272E" stroke-width="1.8" stroke-linecap="round" stroke-linejoin="round"/>
<path d="M145.294 98.7035C145.971 96.5597 145.201 94.4675 143.573 94.0304C141.945 93.5932 140.076 94.9768 139.399 97.1205C138.721 99.2643 139.492 101.357 141.12 101.794C142.748 102.231 144.617 100.847 145.294 98.7035Z" stroke="#22272E" stroke-width="1.8" stroke-linecap="round" stroke-linejoin="round"/>
<path d="M139.483 96.9864C139.483 96.9864 139.435 96.088 137.729 96.5821" stroke="#22272E" stroke-width="1.8" stroke-linecap="round" stroke-linejoin="round"/>
<path d="M128.957 94.1113L123.305 93.168" stroke="#22272E" stroke-width="1.8" stroke-linecap="round" stroke-linejoin="round"/>
<path d="M123.792 94.3809C123.792 94.3809 123.354 92 121.258 91.9551C119.163 91.9102 117.896 97.8399 123.11 98.6485" fill="#F4C2C9"/>
<path d="M120.917 93.7969C121.16 93.7395 121.416 93.7518 121.651 93.8321C121.886 93.9124 122.089 94.0568 122.233 94.2461C122.371 94.4798 122.438 94.7436 122.428 95.0097C122.428 95.1445 122.379 95.2344 122.379 95.3691C122.379 95.5039 122.33 95.5488 122.33 95.6386C122.292 95.7857 122.276 95.9368 122.281 96.0879C122.271 96.1437 122.274 96.2009 122.291 96.2553C122.308 96.3098 122.338 96.36 122.379 96.4023C122.641 96.6646 122.955 96.8781 123.305 97.0312C123.073 97.1081 122.826 97.1358 122.582 97.1125C122.337 97.0892 122.101 97.0153 121.892 96.8965C121.658 96.7316 121.501 96.4906 121.453 96.2226C121.419 95.9824 121.435 95.7383 121.502 95.5039C121.55 95.414 121.55 95.2793 121.599 95.1894C121.648 95.0996 121.648 95.0547 121.648 94.9648C121.697 94.8493 121.697 94.721 121.648 94.6055C121.595 94.4306 121.503 94.2681 121.377 94.1287C121.251 93.9893 121.094 93.8762 120.917 93.7969V93.7969Z" fill="#22272E"/>
<path d="M138.801 96.2676C138.834 96.7746 138.949 97.2742 139.142 97.75C139.226 97.9582 139.341 98.1547 139.483 98.334C139.688 98.5562 139.838 98.8168 139.922 99.0977C140 99.3982 140.005 99.7108 139.938 100.014C139.871 100.316 139.732 100.602 139.532 100.85C139.354 101.088 139.121 101.288 138.85 101.434C138.592 101.596 138.284 101.675 137.973 101.658C138.404 101.366 138.727 100.958 138.899 100.49C139.088 100.111 139.139 99.6856 139.045 99.2773C138.959 99.0699 138.844 98.8736 138.704 98.6934C138.555 98.4259 138.456 98.1374 138.411 97.8398C138.389 97.2933 138.524 96.7511 138.801 96.2676V96.2676Z" fill="#22272E"/>
<path d="M133.928 103.41C133.246 103.387 132.585 103.19 132.017 102.841C131.449 102.492 130.997 102.005 130.712 101.434" stroke="#22272E" stroke-width="1.8" stroke-linecap="round" stroke-linejoin="round"/>
<path d="M131.93 96.8965C131.837 96.876 131.75 96.8387 131.672 96.787C131.595 96.7352 131.53 96.6699 131.48 96.5947C131.43 96.5196 131.397 96.4362 131.382 96.3492C131.368 96.2623 131.371 96.1735 131.394 96.0879L131.589 95.4141C131.611 95.3285 131.652 95.2478 131.708 95.1767C131.764 95.1055 131.835 95.0452 131.916 94.9993C131.998 94.9534 132.088 94.9228 132.183 94.9092C132.277 94.8956 132.373 94.8992 132.466 94.92C132.559 94.9405 132.646 94.9778 132.724 95.0296C132.801 95.0814 132.866 95.1467 132.916 95.2218C132.966 95.2969 132.999 95.3803 133.014 95.4673C133.029 95.5542 133.025 95.643 133.002 95.7286L132.807 96.4024C132.785 96.488 132.744 96.5687 132.688 96.6399C132.632 96.711 132.561 96.7713 132.48 96.8172C132.398 96.8631 132.308 96.8937 132.213 96.9074C132.119 96.921 132.023 96.9173 131.93 96.8965V96.8965Z" fill="#22272E"/>
<path d="M139.678 98.7384C139.585 98.7178 139.498 98.6806 139.42 98.6288C139.343 98.577 139.278 98.5117 139.228 98.4366C139.178 98.3614 139.145 98.278 139.13 98.1911C139.116 98.1041 139.12 98.0153 139.142 97.9298L139.337 97.2559C139.359 97.1703 139.4 97.0896 139.456 97.0185C139.512 96.9473 139.583 96.887 139.664 96.8411C139.746 96.7952 139.836 96.7646 139.931 96.751C140.025 96.7374 140.121 96.741 140.214 96.7618V96.7618C140.307 96.7823 140.394 96.8196 140.472 96.8714C140.549 96.9232 140.614 96.9885 140.664 97.0636C140.714 97.1387 140.747 97.2221 140.762 97.3091C140.777 97.396 140.773 97.4848 140.75 97.5704L140.555 98.2442C140.533 98.3298 140.493 98.4105 140.436 98.4817C140.38 98.5528 140.309 98.6131 140.228 98.659C140.146 98.7049 140.056 98.7355 139.962 98.7492C139.867 98.7628 139.771 98.7591 139.678 98.7384V98.7384Z" fill="#22272E"/>
<path d="M133.879 93.7969C133.343 93.8867 133.1 93.2129 132.32 93.2578C131.102 93.3027 130.42 93.5273 130.322 93.0332C130.273 92.6738 131.199 92 132.369 91.9551C134.074 91.9551 134.854 93.6621 133.879 93.7969Z" fill="#22272E"/>
<path d="M139.678 95.1445C140.019 95.4141 140.506 94.9199 140.994 95.2344C141.725 95.6387 141.968 95.998 142.212 95.6836C142.456 95.3691 142.212 94.6055 141.53 94.2012C140.409 93.4824 138.947 94.6504 139.678 95.1445Z" fill="#22272E"/>
<path d="M78.2777 170.254C77.9494 170.892 77.7355 171.574 77.6442 172.275C77.6442 173.039 78.3264 180.092 78.1315 181.484C77.9366 182.877 77.4493 185.617 77.1569 186.021C76.8645 186.426 75.1102 185.168 75.0615 180.945C75.0127 176.723 73.4533 170.928 74.7691 170.254C76.0848 169.58 77.8878 169.715 78.2777 170.254Z" fill="#F4C2C9"/>
<path d="M46.3593 191.098L58.0546 174.117C58.1841 173.93 58.3529 173.768 58.5511 173.641C58.7493 173.514 58.9729 173.425 59.2089 173.379C59.4449 173.333 59.6885 173.331 59.9254 173.373C60.1623 173.415 60.3878 173.5 60.5886 173.623L88.1213 189.75C88.3248 189.869 88.5005 190.025 88.6379 190.208C88.7754 190.39 88.8719 190.597 88.9218 190.814C88.9717 191.032 88.9741 191.256 88.9286 191.475C88.8832 191.693 88.791 191.901 88.6573 192.086L76.962 209.066C76.8325 209.254 76.6638 209.416 76.4655 209.543C76.2673 209.669 76.0437 209.758 75.8077 209.804C75.5717 209.85 75.3281 209.852 75.0912 209.811C74.8543 209.769 74.6288 209.684 74.428 209.561L46.8953 193.434C46.4935 193.185 46.2126 192.802 46.1125 192.366C46.0124 191.93 46.1009 191.475 46.3593 191.098V191.098Z" fill="#22272E"/>
<path d="M78.6676 204.08L84.5153 195.635C84.576 195.544 84.6598 195.469 84.7595 195.415C84.8592 195.361 84.9717 195.331 85.0871 195.326C85.2025 195.322 85.3174 195.343 85.4216 195.389C85.5258 195.435 85.6162 195.504 85.6848 195.59L86.6107 196.713C86.7019 196.821 86.7553 196.951 86.764 197.088C86.7727 197.224 86.7363 197.36 86.6594 197.477L81.3965 205.113C81.3262 205.228 81.2154 205.318 81.0825 205.367C80.9496 205.416 80.8025 205.421 80.6656 205.383L79.1549 205.113C79.0413 205.085 78.9361 205.034 78.8469 204.964C78.7578 204.893 78.6872 204.805 78.6403 204.705C78.5935 204.606 78.5716 204.498 78.5763 204.39C78.581 204.282 78.6123 204.176 78.6676 204.08V204.08Z" fill="#FF977A"/>
<path d="M76.962 169.805C76.962 169.805 76.6696 177.621 76.6209 179.283C76.5722 180.945 76.6696 184.225 76.2311 185.797C75.7925 187.369 75.0615 191.322 73.7458 191.592C72.4301 191.861 73.8433 186.74 73.8433 185.752C73.7363 184.617 73.5408 183.491 73.2585 182.383C73.2585 182.383 72.7712 184.853 72.4301 185.932C72.089 187.01 69.8474 190.379 68.9702 190.244C68.0931 190.109 69.1652 187.594 69.8474 186.066C70.4809 184.674 70.7245 181.754 70.7245 181.754C70.3445 182.646 69.9051 183.517 69.4088 184.359C68.824 185.258 66.8261 188.043 65.9977 187.908C65.1692 187.773 66.5337 184.943 67.3621 183.641C67.8313 182.961 68.1309 182.194 68.2393 181.394C68.2393 181.394 66.9235 182.607 66.0951 183.191C65.2667 183.775 62.3429 185.078 62.0992 184.404C61.8556 183.73 63.1713 183.012 64.3896 181.978C65.6078 180.945 66.9235 178.879 67.2159 178.519C67.5083 178.16 66.6799 175.016 67.9956 172.904C69.3113 170.793 70.091 169.939 70.4321 168.502C70.7732 167.064 76.8158 168.771 76.962 169.805Z" fill="#F4C2C9"/>
<path d="M107.419 109.07C107.419 109.07 101.864 108.576 95.1875 116.303C88.5114 124.029 81.9328 130.498 80.081 133.553C78.2293 136.607 74.1359 148.063 72.0892 157.092C70.0425 166.121 69.8476 167.738 69.8963 168.727C69.9451 169.625 74.8668 170.883 78.0831 170.838C78.3657 170.843 78.6433 170.768 78.8785 170.624C79.1138 170.479 79.2953 170.272 79.3988 170.029C80.6658 167.289 85.1002 157.945 86.8545 154.531C88.9012 150.533 91.289 144.604 91.5814 144.199C91.8738 143.795 105.177 131.307 107.662 128.027C110.148 124.748 112.536 119.447 111.999 114.775C111.415 109.699 108.588 109.025 107.419 109.07Z" fill="#FF977A"/>
<path d="M80.7633 132.52C80.7633 132.52 82.2739 130.588 84.1744 132.34C86.1724 134.182 85.2952 138.18 82.5176 140.695C80.2272 142.762 76.9623 141.908 77.2547 139.977" stroke="#22272E" stroke-width="1.8" stroke-linecap="round" stroke-linejoin="round"/>
<path d="M70.5786 166.57C71.8943 167.154 75.8415 168.771 79.6912 168.322" stroke="#22272E" stroke-width="1.8" stroke-linecap="round" stroke-linejoin="round"/>
<path d="M198.155 179.328L206.342 154.621C206.461 154.292 206.69 154.006 206.997 153.804C207.303 153.603 207.671 153.495 208.047 153.498L256.485 154.756C256.674 154.758 256.859 154.8 257.027 154.878C257.196 154.957 257.342 155.07 257.455 155.209C257.568 155.348 257.645 155.509 257.68 155.68C257.714 155.85 257.706 156.026 257.655 156.193L248.152 186.336C248.038 186.704 247.781 187.021 247.432 187.228C247.082 187.434 246.663 187.516 246.252 187.459L199.227 180.766C199.045 180.757 198.867 180.709 198.707 180.627C198.548 180.544 198.411 180.429 198.307 180.29C198.204 180.151 198.136 179.992 198.11 179.826C198.083 179.659 198.099 179.489 198.155 179.328V179.328Z" fill="#22272E"/>
<path d="M197.716 180.586L169.55 183.012L217.842 193.973C219.009 194.243 220.231 194.243 221.399 193.973L247.616 187.729L197.716 180.586Z" fill="#63737A"/>
<path d="M217.891 193.973L169.599 183.012C169.602 183.422 169.752 183.821 170.024 184.146C170.297 184.47 170.679 184.703 171.109 184.809L216.624 195.949C218.545 196.414 220.568 196.383 222.471 195.859L246.349 189.391C246.749 189.285 247.1 189.06 247.346 188.751C247.593 188.442 247.722 188.067 247.714 187.684L221.497 193.928C220.32 194.234 219.076 194.249 217.891 193.973V193.973Z" fill="#22272E"/>
<path d="M229.976 158.979L226.565 169.67C226.515 169.8 226.422 169.913 226.3 169.994C226.178 170.074 226.032 170.118 225.882 170.119L206.731 168.592C206.635 168.585 206.541 168.559 206.457 168.515C206.372 168.47 206.3 168.41 206.244 168.337C206.188 168.264 206.15 168.18 206.134 168.093C206.117 168.005 206.121 167.914 206.147 167.828L209.363 158.035C209.402 157.908 209.485 157.795 209.599 157.714C209.713 157.634 209.852 157.589 209.996 157.586L229.342 158.215C229.442 158.218 229.54 158.241 229.629 158.283C229.718 158.325 229.795 158.385 229.856 158.458C229.917 158.531 229.959 158.616 229.979 158.706C230 158.796 229.999 158.889 229.976 158.979V158.979Z" fill="white"/>
<path d="M226.321 160.91L224.177 167.334L209.265 166.346L209.801 164.908L215.308 162.662L218.426 164.908L226.321 160.91Z" fill="#FF977A"/>
<path d="M215.162 174.027L213.748 178.07C213.698 178.207 213.597 178.322 213.464 178.396C213.33 178.47 213.171 178.498 213.017 178.475L203.807 177.352C203.713 177.343 203.622 177.315 203.54 177.27C203.459 177.225 203.39 177.163 203.339 177.089C203.287 177.016 203.254 176.933 203.243 176.846C203.231 176.759 203.241 176.671 203.271 176.588L204.49 172.814C204.54 172.684 204.632 172.571 204.754 172.491C204.876 172.41 205.022 172.367 205.172 172.365L214.577 173.264C214.678 173.26 214.778 173.28 214.868 173.321C214.958 173.362 215.036 173.423 215.094 173.499C215.152 173.575 215.189 173.663 215.201 173.755C215.212 173.848 215.199 173.941 215.162 174.027V174.027Z" fill="#FF977A"/>
<path d="M229.586 175.375L228.027 179.822C227.977 179.959 227.876 180.074 227.742 180.148C227.608 180.222 227.45 180.25 227.296 180.227L218.524 179.148C218.426 179.137 218.332 179.106 218.249 179.056C218.167 179.007 218.097 178.941 218.045 178.863C217.994 178.785 217.962 178.698 217.952 178.607C217.942 178.517 217.955 178.425 217.988 178.34L219.45 174.162C219.495 174.032 219.587 173.92 219.712 173.846C219.837 173.772 219.985 173.741 220.132 173.758L229.001 174.566C229.104 174.571 229.203 174.598 229.292 174.645C229.381 174.692 229.457 174.757 229.514 174.836C229.57 174.914 229.606 175.004 229.619 175.097C229.632 175.191 229.62 175.286 229.586 175.375V175.375Z" fill="#FF977A"/>
<path d="M246.154 176.902L244.498 181.844C244.448 181.98 244.347 182.096 244.213 182.17C244.079 182.244 243.921 182.272 243.767 182.248L233.192 180.945C233.094 180.934 233 180.902 232.917 180.853C232.834 180.804 232.765 180.738 232.713 180.66C232.662 180.582 232.63 180.495 232.62 180.404C232.61 180.314 232.622 180.222 232.656 180.137L234.264 175.51C234.309 175.38 234.401 175.268 234.526 175.194C234.651 175.12 234.799 175.089 234.946 175.106L245.521 176.094C245.626 176.096 245.729 176.12 245.822 176.165C245.915 176.21 245.995 176.274 246.056 176.352C246.118 176.431 246.159 176.521 246.176 176.617C246.193 176.712 246.185 176.81 246.154 176.902Z" fill="#FF977A"/>
<path d="M240.453 161.135C240.261 161.805 239.829 162.396 239.228 162.811C238.627 163.227 237.891 163.444 237.139 163.426C235.726 163.336 234.995 162.213 235.385 160.955C235.6 160.356 236.01 159.832 236.559 159.454C237.108 159.076 237.77 158.863 238.455 158.844C238.765 158.832 239.073 158.888 239.355 159.006C239.638 159.125 239.886 159.302 240.08 159.525C240.275 159.748 240.409 160.01 240.474 160.289C240.539 160.569 240.532 160.858 240.453 161.135V161.135Z" fill="#FFE779"/>
<path d="M243.913 159.652L251.027 159.877" stroke="#63737A" stroke-width="1.8" stroke-linecap="round" stroke-linejoin="round"/>
<path d="M232.802 168.188L248.055 169.176" stroke="#63737A" stroke-width="1.8" stroke-linecap="round" stroke-linejoin="round"/>
<path d="M243.084 162.303L250.199 162.572" stroke="#63737A" stroke-width="1.8" stroke-linecap="round" stroke-linejoin="round"/>
<path d="M240.112 60.1504C238.211 58.3985 235.531 57.3653 232.217 57.0059C230.018 56.7068 227.771 56.9871 225.736 57.8145C223.397 58.7579 221.643 60.42 220.327 62.8458L218.134 63.6993L219.401 64.9122L225.103 65.8555C225.495 64.7183 226.181 63.6857 227.101 62.8458C228.075 61.9473 229.391 61.588 231.048 61.8126C232.705 62.0372 233.825 62.6212 234.264 63.5645C234.702 64.5192 234.754 65.5873 234.41 66.5743C234.115 67.4969 233.54 68.3228 232.753 68.9551C232.259 69.3609 231.701 69.6942 231.097 69.9434L229.147 70.8419C227.247 71.6954 225.98 72.504 225.346 73.3126C224.718 74.2107 224.211 75.1762 223.836 76.1876L221.887 76.7715L223.154 77.9844L229.001 79.4668C229.227 78.5997 229.588 77.7674 230.073 76.9961C230.66 76.1544 231.509 75.4965 232.51 75.1094L234.508 74.2559C236.071 73.6512 237.544 72.8663 238.893 71.92C240.392 70.7449 241.435 69.1524 241.866 67.3829C242.694 64.418 242.11 61.9922 240.112 60.1504Z" fill="#F8AB5D"/>
<path d="M225.2 81.2187L225.005 81.1738C224.583 81.0737 224.143 81.0527 223.711 81.112C223.28 81.1713 222.865 81.3098 222.493 81.5191C222.12 81.7285 221.797 82.0046 221.542 82.3311C221.288 82.6575 221.106 83.0278 221.009 83.4199C220.735 84.2131 220.799 85.0729 221.188 85.8242C221.577 86.5754 222.263 87.1615 223.105 87.4629L223.3 87.5527C225.054 88.0918 226.906 87.1035 227.442 85.3066C227.978 83.5098 226.954 81.668 225.2 81.2187Z" fill="#F8AB5D"/>
<path d="M224.518 56.6016C226.565 55.8175 228.799 55.5388 230.999 55.793C234.313 56.1524 236.944 57.1856 238.893 58.9375C240.843 60.6895 241.476 63.2051 240.599 66.2598C240.156 68.0246 239.115 69.6137 237.626 70.7969C236.798 71.4707 235.336 72.2344 233.241 73.1328L231.243 73.9863C230.242 74.3734 229.393 75.0313 228.806 75.8731C228.351 76.6574 227.991 77.4861 227.734 78.3438L221.887 76.8614C222.715 74.5254 223.397 72.9981 224.079 72.1895C224.762 71.3809 225.98 70.5723 227.88 69.7188L229.83 68.8203C230.43 68.5653 230.988 68.2326 231.486 67.8321C232.299 67.2204 232.879 66.3867 233.143 65.4512C233.44 64.4588 233.388 63.4055 232.997 62.4414C232.607 61.4981 231.486 60.9141 229.781 60.6895C228.075 60.4649 226.808 60.8242 225.834 61.7227C224.894 62.548 224.205 63.5857 223.836 64.7324L218.134 63.7891C219.499 60.1504 221.545 57.8145 224.518 56.6016ZM223.884 80.5L224.079 80.5449C224.95 80.8183 225.67 81.3931 226.089 82.1478C226.507 82.9024 226.59 83.7776 226.321 84.5879V84.5879C225.785 86.3848 223.884 87.3731 222.179 86.834L221.984 86.7442C221.142 86.4428 220.457 85.8567 220.067 85.1055C219.678 84.3542 219.614 83.4944 219.889 82.7012V82.7012C220.102 81.9212 220.643 81.2513 221.393 80.8386C222.142 80.4259 223.038 80.3041 223.884 80.5V80.5Z" fill="#FF977A"/>
<path d="M91.9224 84.3184H110.635L112.535 85.4414C112.674 85.5242 112.835 85.5707 113.001 85.576C113.166 85.5813 113.33 85.5452 113.475 85.4715C113.62 85.3977 113.741 85.2892 113.824 85.1573C113.907 85.0255 113.95 84.8753 113.949 84.7227V72.5488C113.949 71.9531 113.692 71.3818 113.235 70.9606C112.778 70.5394 112.158 70.3027 111.512 70.3027H91.9224C91.2762 70.3027 90.6564 70.5394 90.1995 70.9606C89.7425 71.3818 89.4858 71.9531 89.4858 72.5488V82.0723C89.4858 82.668 89.7425 83.2393 90.1995 83.6605C90.6564 84.0817 91.2762 84.3184 91.9224 84.3184V84.3184Z" fill="#F4C2C9"/>
<path d="M107.906 74.3008H95.4312" stroke="#22272E" stroke-width="1.8" stroke-linecap="round" stroke-linejoin="round"/>
<path d="M107.906 77.4453H95.4312" stroke="#22272E" stroke-width="1.8" stroke-linecap="round" stroke-linejoin="round"/>
<path d="M107.906 80.5898H100.743" stroke="#22272E" stroke-width="1.8" stroke-linecap="round" stroke-linejoin="round"/>
</svg>
