<svg width="279" height="248" viewBox="0 0 279 248" fill="none" xmlns="http://www.w3.org/2000/svg">
<path fill-rule="evenodd" clip-rule="evenodd" d="M175.73 50.0396C207.634 48.8964 231.666 72.7194 250.532 93.5408C266.351 110.999 270.68 132.358 269.917 153.987C269.181 174.831 263.34 195.361 246.384 211.08C228.182 227.956 203.433 241.371 175.73 241.307C148.084 241.244 94.2895 256.398 73.9042 241.307C52.2052 225.245 57.3849 177.764 57.7677 153.987C58.1484 130.333 49.0382 88.7489 68.8237 71.3142C90.1705 52.5036 144.177 51.1703 175.73 50.0396Z" fill="#FC653C"/>
<path d="M17.4351 162.915V224H21.5167L22.8268 162.915H17.4351Z" fill="#FFE779"/>
<path d="M22.8268 162.915H17.4351V169.567H22.6756L22.8268 162.915Z" fill="#FFE779"/>
<path d="M259.559 162.915V224H255.427L254.167 162.915H259.559Z" fill="#FFE779"/>
<path d="M254.167 162.915H259.559V169.567H254.318L254.167 162.915Z" fill="#FFE779"/>
<path d="M276.994 160.427H0L29.4782 147.428H247.465L276.994 160.427Z" fill="#FFE779"/>
<path d="M276.994 160.427H0V164.337H276.994V160.427Z" fill="black"/>
<path d="M53.2355 118.944L55.9535 119.867C56.2354 119.964 56.4931 120.12 56.709 120.325C56.925 120.531 57.094 120.78 57.2046 121.057C57.3153 121.334 57.3648 121.632 57.35 121.929C57.3351 122.227 57.2561 122.518 57.1184 122.783L54.8372 127.156C54.6047 127.596 54.221 127.937 53.7571 128.115C53.2931 128.294 52.7803 128.298 52.3133 128.128L49.3525 127.108" stroke="#FFE779" stroke-width="1.8" stroke-linecap="round" stroke-linejoin="round"/>
<path d="M109.453 12.726C109.477 12.6356 109.529 12.5559 109.602 12.4991C109.674 12.4423 109.762 12.4115 109.853 12.4115C109.943 12.4115 110.031 12.4423 110.104 12.4991C110.176 12.5559 110.228 12.6356 110.252 12.726C110.429 13.4329 110.734 14.0989 111.151 14.6887C111.727 15.1094 112.369 15.4239 113.048 15.6183C113.136 15.6433 113.213 15.6973 113.268 15.7719C113.323 15.8465 113.353 15.9377 113.353 16.0315C113.353 16.1253 113.323 16.2165 113.268 16.2912C113.213 16.3658 113.136 16.4197 113.048 16.4447C112.365 16.6282 111.721 16.9436 111.151 17.3744C110.744 17.9702 110.44 18.6342 110.252 19.3371C110.228 19.4275 110.176 19.5072 110.104 19.564C110.031 19.6208 109.943 19.6516 109.853 19.6516C109.762 19.6516 109.674 19.6208 109.602 19.564C109.529 19.5072 109.477 19.4275 109.453 19.3371C109.276 18.6301 108.971 17.9642 108.554 17.3744C107.978 16.9537 107.336 16.6392 106.657 16.4447C106.569 16.4197 106.492 16.3658 106.437 16.2912C106.382 16.2165 106.353 16.1253 106.353 16.0315C106.353 15.9377 106.382 15.8465 106.437 15.7719C106.492 15.6973 106.569 15.6433 106.657 15.6183C107.374 15.5445 108.044 15.216 108.554 14.6887C109.064 14.1615 109.382 13.468 109.453 12.726V12.726Z" fill="#6DAFA7"/>
<path d="M163.555 9.49854C163.572 9.44414 163.61 9.39599 163.664 9.36161C163.718 9.32724 163.784 9.30859 163.853 9.30859C163.921 9.30859 163.987 9.32724 164.041 9.36161C164.095 9.39599 164.133 9.44414 164.15 9.49854C164.273 9.89916 164.493 10.2753 164.795 10.6043C165.211 10.83 165.662 11.009 166.135 11.1368C166.198 11.1534 166.253 11.1862 166.292 11.2304C166.331 11.2746 166.353 11.3278 166.353 11.3825C166.353 11.4372 166.331 11.4904 166.292 11.5346C166.253 11.5788 166.198 11.6116 166.135 11.6282C165.65 11.7296 165.194 11.9107 164.795 12.1606C164.503 12.4947 164.284 12.8692 164.15 13.2665C164.13 13.3185 164.09 13.364 164.037 13.3962C163.983 13.4284 163.919 13.4458 163.853 13.4458C163.786 13.4458 163.722 13.4284 163.668 13.3962C163.615 13.364 163.575 13.3185 163.555 13.2665C163.432 12.8658 163.213 12.4897 162.91 12.1606C162.505 11.9189 162.051 11.7387 161.57 11.6282C161.507 11.6116 161.452 11.5788 161.413 11.5346C161.374 11.4904 161.353 11.4372 161.353 11.3825C161.353 11.3278 161.374 11.2746 161.413 11.2304C161.452 11.1862 161.507 11.1534 161.57 11.1368C162.055 11.0354 162.511 10.8543 162.91 10.6043C163.232 10.2851 163.453 9.90529 163.555 9.49854V9.49854Z" fill="#6DAFA7"/>
<path d="M120.573 0.192724C120.697 -0.0642413 121.07 -0.0642413 121.132 0.192724C121.279 0.590438 121.487 0.970554 121.753 1.32337C122.151 1.58455 122.62 1.76101 123.12 1.8373C123.43 1.94009 123.43 2.24844 123.12 2.29983C122.639 2.42102 122.18 2.5938 121.753 2.81376C121.438 3.14296 121.224 3.53118 121.132 3.94442C121.008 4.20138 120.635 4.20138 120.573 3.94442C120.427 3.5467 120.218 3.16658 119.952 2.81376C119.554 2.55258 119.085 2.37612 118.585 2.29983C118.275 2.19705 118.275 1.88869 118.585 1.8373C119.066 1.71611 119.526 1.54333 119.952 1.32337C120.23 0.976054 120.44 0.594425 120.573 0.192724V0.192724Z" fill="#FFE779"/>
<path d="M167.453 22.0346C167.477 21.9442 167.529 21.8645 167.602 21.8077C167.674 21.7509 167.762 21.7202 167.853 21.7202C167.943 21.7202 168.031 21.7509 168.104 21.8077C168.176 21.8645 168.228 21.9442 168.252 22.0346C168.429 22.7416 168.734 23.4075 169.151 23.9973C169.727 24.418 170.369 24.7325 171.048 24.927C171.136 24.952 171.213 25.0059 171.268 25.0806C171.323 25.1552 171.353 25.2464 171.353 25.3402C171.353 25.434 171.323 25.5252 171.268 25.5998C171.213 25.6745 171.136 25.7284 171.048 25.7534C170.365 25.9368 169.721 26.2523 169.151 26.6831C168.744 27.2788 168.44 27.9428 168.252 28.6457C168.228 28.7361 168.176 28.8159 168.104 28.8727C168.031 28.9295 167.943 28.9602 167.853 28.9602C167.762 28.9602 167.674 28.9295 167.602 28.8727C167.529 28.8159 167.477 28.7361 167.453 28.6457C167.276 27.9388 166.971 27.2729 166.554 26.6831C165.978 26.2624 165.336 25.9478 164.657 25.7534C164.569 25.7284 164.492 25.6745 164.437 25.5998C164.382 25.5252 164.353 25.434 164.353 25.3402C164.353 25.2464 164.382 25.1552 164.437 25.0806C164.492 25.0059 164.569 24.952 164.657 24.927C165.34 24.7436 165.984 24.4281 166.554 23.9973C166.951 23.3957 167.254 22.7334 167.453 22.0346V22.0346Z" fill="#FFE779"/>
<path d="M256.352 24.3057C256.352 24.2035 256.323 24.1035 256.268 24.0185C256.213 23.9335 256.135 23.8672 256.044 23.8281C255.952 23.789 255.852 23.7787 255.755 23.7987C255.658 23.8186 255.569 23.8679 255.499 23.9402C255.429 24.0125 255.381 24.1046 255.362 24.2049C255.343 24.3052 255.353 24.4091 255.391 24.5036C255.428 24.598 255.492 24.6788 255.575 24.7356C255.657 24.7924 255.754 24.8227 255.852 24.8227C255.919 24.8251 255.985 24.8134 256.046 24.7883C256.108 24.7631 256.164 24.7251 256.211 24.6766C256.258 24.6282 256.295 24.5702 256.319 24.5064C256.343 24.4426 256.355 24.3743 256.352 24.3057Z" fill="#22272E"/>
<path d="M189.353 118.213L224.353 113.772L223.758 120.62L216.877 121.69L216.184 123.081L189.353 118.213Z" fill="#63737A"/>
<path d="M216.398 122.304L225.635 85.1504C225.789 84.5204 226.125 83.9513 226.599 83.5156C227.072 83.0799 227.663 82.7973 228.296 82.704L275.737 75.518C275.972 75.4839 276.212 75.5104 276.434 75.5952C276.657 75.68 276.855 75.8202 277.01 76.0029C277.165 76.1857 277.272 76.4051 277.321 76.641C277.371 76.8769 277.361 77.1216 277.293 77.3527L267.604 110.633C267.434 111.195 267.123 111.703 266.7 112.105C266.277 112.507 265.758 112.791 265.195 112.926L218.055 124.088C217.818 124.135 217.574 124.121 217.344 124.047C217.114 123.972 216.906 123.839 216.741 123.661C216.575 123.483 216.457 123.265 216.397 123.027C216.337 122.79 216.338 122.541 216.398 122.304V122.304Z" fill="#22272E"/>
<path d="M252.217 98.0969C251.728 100.05 250.112 101.949 248.496 102.329C246.879 102.709 245.998 101.407 246.488 99.4534C246.977 97.5 248.593 95.6009 250.21 95.221C251.826 94.8412 252.707 96.1435 252.217 98.0969Z" fill="#63737A"/>
<path d="M217.353 124.115C217.201 124.002 196.554 120.927 190.813 120.016C190.406 119.965 190.031 119.744 189.761 119.397C189.491 119.049 189.345 118.6 189.353 118.137V117.91L217.353 121.61V124.115Z" fill="#22272E"/>
<path d="M260.011 53.7835H276.048C276.227 53.7852 276.404 53.8225 276.568 53.893C276.732 53.9636 276.88 54.066 277.002 54.1939C277.124 54.3218 277.217 54.4726 277.277 54.637C277.337 54.8014 277.362 54.9759 277.35 55.1498L276.516 64.9163C276.49 65.3288 276.313 65.7185 276.017 66.0153C275.721 66.3121 275.326 66.4966 274.902 66.5356L258.762 68.2561C258.577 68.2758 258.389 68.2558 258.213 68.1974C258.037 68.139 257.876 68.0437 257.742 67.9181C257.608 67.7926 257.504 67.64 257.437 67.471C257.37 67.3021 257.342 67.1209 257.356 66.9404L258.241 55.4534C258.244 55.2308 258.293 55.011 258.384 54.8066C258.474 54.6022 258.606 54.4172 258.77 54.2621C258.935 54.107 259.129 53.9849 259.342 53.9028C259.555 53.8207 259.782 53.7802 260.011 53.7835Z" stroke="#6DAFA7" stroke-width="1.8" stroke-linecap="round" stroke-linejoin="round"/>
<path d="M259.353 53.7833L268.222 58.7572C268.51 58.9097 268.833 58.976 269.155 58.9489C269.477 58.9217 269.785 58.8021 270.045 58.6033L276.353 53.7833" stroke="#6DAFA7" stroke-width="1.8" stroke-linecap="round" stroke-linejoin="round"/>
<path d="M172.549 4.13715L171.478 5.95669C171.397 6.10068 171.353 6.28538 171.353 6.47657C171.353 6.66775 171.397 6.85245 171.478 6.99644C171.554 7.11949 171.654 7.20111 171.763 7.22919C171.871 7.25728 171.983 7.23035 172.081 7.15239L173.353 5.95669L172.549 4.13715Z" fill="#22272E"/>
<path d="M187.768 9.30859L188.34 10.8124C188.376 10.9261 188.332 11.0425 188.216 11.1418C188.1 11.241 187.92 11.3169 187.705 11.3563V11.3563C187.494 11.3902 187.265 11.3827 187.064 11.3352C186.864 11.2877 186.707 11.2038 186.624 11.1003L185.353 9.82052L187.768 9.30859Z" fill="#22272E"/>
<path d="M245.83 64.8258C245.569 64.5179 245.225 64.298 244.844 64.1939C244.462 64.0898 244.059 64.1062 243.687 64.2412C243.314 64.3762 242.989 64.6235 242.751 64.9517C242.514 65.2799 242.376 65.6742 242.355 66.0842C242.334 66.4943 242.431 66.9016 242.633 67.2543C242.835 67.607 243.133 67.8891 243.49 68.0648C243.847 68.2404 244.245 68.3016 244.636 68.2405C245.026 68.1794 245.39 67.9989 245.681 67.7218C245.878 67.5452 246.039 67.3288 246.154 67.0857C246.269 66.8425 246.336 66.5776 246.35 66.307C246.364 66.0363 246.325 65.7655 246.235 65.511C246.146 65.2564 246.008 65.0233 245.83 64.8258V64.8258Z" fill="#22272E"/>
<path d="M243.331 60.4529L242.967 60.0261C242.385 59.3817 241.579 58.9982 240.724 58.9583C239.869 58.9184 239.033 59.2253 238.396 59.8127V59.8127C237.768 60.4107 237.395 61.2381 237.356 62.1163C237.317 62.9945 237.616 63.8532 238.188 64.5072L238.552 64.934C238.974 65.402 239.277 65.9701 239.435 66.5877C239.539 67.0678 239.694 67.6012 239.798 68.1347C239.864 68.395 239.994 68.6333 240.177 68.8263C240.359 69.0193 240.587 69.1604 240.838 69.2357C241.09 69.311 241.356 69.3179 241.611 69.2558C241.865 69.1938 242.1 69.0648 242.292 68.8815L244.577 66.7477L246.863 64.6139C247.055 64.4321 247.199 64.2024 247.279 63.947C247.359 63.6916 247.374 63.4193 247.322 63.1563C247.27 62.8933 247.152 62.6486 246.981 62.446C246.809 62.2434 246.59 62.0898 246.344 61.9999C245.824 61.8399 245.357 61.6265 244.889 61.4665C244.29 61.2782 243.752 60.9281 243.331 60.4529V60.4529Z" fill="#6DAFA7"/>
<path d="M203.353 68.6772C204.064 72.9893 204.064 77.3972 203.353 81.7093L219.353 78.0893C219.353 78.0893 215.797 71.8835 214.859 66.1949L203.353 68.6772Z" fill="#22272E"/>
<path d="M203.353 71.3664L216.353 68.2635" stroke="#63737A" stroke-width="1.8" stroke-linecap="round" stroke-linejoin="round"/>
<path d="M206.353 73.4349L214.353 71.3663" stroke="#63737A" stroke-width="1.8" stroke-linecap="round" stroke-linejoin="round"/>
<path d="M206.353 76.5378L212.353 74.4693" stroke="#63737A" stroke-width="1.8" stroke-linecap="round" stroke-linejoin="round"/>
<path d="M242.353 124.557L253.398 122.047C253.398 122.047 253.55 127.17 261.353 130.193C261.353 130.193 252.689 136.854 250.003 138.596C250.054 138.544 243.569 135.163 242.353 124.557Z" fill="#6DAFA7"/>
<path d="M242.353 128.253L253.353 124.115" stroke="#22272E" stroke-width="1.8" stroke-linecap="round" stroke-linejoin="round"/>
<path d="M246.353 129.287L253.353 126.184" stroke="#22272E" stroke-width="1.8" stroke-linecap="round" stroke-linejoin="round"/>
<path d="M247.353 132.39L254.353 128.253" stroke="#22272E" stroke-width="1.8" stroke-linecap="round" stroke-linejoin="round"/>
<path d="M249.353 134.458L252.353 131.355" stroke="#22272E" stroke-width="1.8" stroke-linecap="round" stroke-linejoin="round"/>
<path d="M184.774 127.521C175.107 127.726 159.924 131.418 150.713 135.213C145.441 137.374 140.289 139.822 135.277 142.546C135.277 142.546 137.453 141.316 140.035 146.341C142.616 151.367 141.705 157.213 141.705 157.213C143.021 156.854 174.399 155.879 184.42 154.546C194.44 153.213 206.03 149.521 205.322 139.623C204.613 129.726 196.009 127.008 184.217 124.803C172.425 122.598 165.846 123.521 165.137 123.316C163.531 122.84 162.081 121.937 160.937 120.7C159.722 119.213 158.457 115.162 158.457 115.162C158.457 115.162 127.888 113.213 124.801 118.444C121.714 123.675 135.581 138.649 135.581 138.649L184.774 127.521Z" fill="#22272E"/>
<path d="M111.926 115.049C111.926 115.049 110.265 118.684 109.661 119.996C109.057 121.308 95.1159 121.813 88.875 121.914C82.6341 122.015 70.404 124.538 69.4478 133.573C68.3405 143.87 76.9469 148.664 92.2975 149.775C109.561 151.037 125.565 150.633 128.938 150.986C132.31 151.34 141.621 147.15 142.678 143.264C143.734 139.377 158.38 136.4 158.38 136.4C158.38 136.4 161.602 120.248 156.317 117.018C151.032 113.788 111.926 115.049 111.926 115.049Z" fill="#22272E"/>
<path d="M142.353 139.63C142.353 139.63 113.925 123.201 91.3525 124.155" stroke="#63737A" stroke-width="1.8" stroke-linecap="round" stroke-linejoin="round"/>
<path d="M135.186 142.976C135.186 142.976 133.808 143.568 134.596 148.305C135.383 153.042 139.713 158.075 141.435 157.088C143.157 156.101 142.271 147.515 140.303 144.653C138.335 141.791 135.186 142.976 135.186 142.976Z" fill="#22272E"/>
<path d="M132.353 144.742C132.353 144.742 129.536 148.036 128.256 148.97C126.976 149.904 121.24 150.297 119.141 153.443C117.041 156.589 121.855 163.815 125.747 162.636C124.671 163.275 123.75 163.865 123.033 164.307C119.551 166.568 113.201 169.96 108.694 164.995C104.905 160.768 106.236 155.655 109.002 152.263C111.767 148.871 118.885 148.478 120.524 148.036C122.162 147.593 125.9 144.988 127.539 144.054C128.922 143.267 129.946 144.3 132.353 144.742Z" fill="black"/>
<path d="M141.329 155.31C141.131 155.359 137.557 155.946 136.068 156.24C134.877 156.484 129.219 159.762 125.249 162.256C121.477 163.43 116.812 156.24 118.847 153.109C120.882 149.979 126.44 149.588 127.681 148.658C128.922 147.729 131.651 144.452 131.651 144.452L132.793 144.599C135.969 144.843 137.607 143.767 137.607 143.767C138.391 144.547 139.03 145.458 139.493 146.457C141.28 149.734 141.429 153.305 141.329 155.31Z" fill="#F4C2C9"/>
<path d="M184.353 128.253C174.588 128.45 159.25 132.009 149.946 135.666C144.62 137.748 139.415 140.107 134.353 142.733" stroke="#63737A" stroke-width="1.8" stroke-linecap="round" stroke-linejoin="round"/>
<path d="M71.7043 128.564C72.1389 128.368 72.6068 128.262 73.0811 128.253C73.5554 128.244 74.0268 128.332 74.468 128.512C77.1815 129.447 78.0859 135.624 76.7292 139.466C75.3725 143.307 72.3575 143.152 71.3525 142.061" stroke="#63737A" stroke-width="1.8" stroke-linecap="round" stroke-linejoin="round"/>
<path d="M203.353 134.514C203.353 134.514 200.588 131.643 197.325 135.22C193.731 139.099 195.611 145.648 198.487 147.21C201.362 148.772 203.021 147.21 203.021 147.21" stroke="#63737A" stroke-width="1.8" stroke-linecap="round" stroke-linejoin="round"/>
<path d="M93.3525 62.0577C93.3525 62.2623 93.2939 62.4623 93.184 62.6324C93.0741 62.8024 92.918 62.935 92.7352 63.0133C92.5525 63.0916 92.3514 63.1121 92.1574 63.0722C91.9635 63.0323 91.7853 62.9338 91.6454 62.7891C91.5056 62.6445 91.4103 62.4602 91.3718 62.2595C91.3332 62.0589 91.353 61.8509 91.4287 61.6619C91.5043 61.4729 91.6325 61.3114 91.797 61.1978C91.9614 61.0841 92.1548 61.0234 92.3525 61.0234C92.617 61.0259 92.87 61.1357 93.057 61.3291C93.244 61.5225 93.3502 61.7842 93.3525 62.0577Z" stroke="#22272E" stroke-width="1.8" stroke-linecap="round" stroke-linejoin="round"/>
<path d="M104.505 52.4084C103.419 55.8731 102.281 57.358 102.384 60.5257C100.528 61.074 98.5585 61.171 96.6532 60.8081C94.748 60.4451 92.9673 59.6336 91.4719 58.4469C91.7822 57.1105 91.9374 56.0711 91.7305 55.4277C91.1099 53.0519 87.7482 51.963 85.4209 48.9932C83.0936 46.0235 82.8868 40.7769 84.0246 40.1335C84.5417 39.8365 85.0589 39.9355 85.8347 42.4103C86.154 43.4256 86.5875 44.4048 87.1276 45.3305C86.0416 42.9547 85.5761 35.1344 88.5757 36.3223C89.5584 36.7183 88.4206 38.4011 89.6101 41.4204C90.155 43.034 91.2471 44.4275 92.7132 45.38C92.5329 43.9273 92.8799 42.4595 93.6958 41.2224C94.8336 39.688 97.7298 37.9557 98.247 39.589C98.7641 41.2224 96.1783 41.7668 95.9714 43.7962C95.6611 46.2215 98.5056 48.1023 100.419 46.5184C102.333 44.9346 101.247 43.1527 100.419 42.0143C99.5916 40.8759 98.2987 39.49 99.2296 38.8466C100.161 38.2032 102.488 38.9456 104.143 41.6679C105.798 44.3901 105.591 48.9437 104.505 52.4084Z" fill="#F4C2C9"/>
<path d="M114.08 89.4111C114.08 89.4111 102.847 103.9 95.4586 107.165C88.07 110.43 83.0777 108.134 81.63 100.226C80.1822 92.319 84.7751 78.1877 86.772 72.9841C88.2198 69.1069 90.5162 62.9851 91.3649 59.1079C92.8168 60.3154 94.5355 61.1419 96.3715 61.5154C98.2075 61.8888 100.105 61.7979 101.899 61.2505C101.949 64.3625 100.551 75.841 100.401 76.9123C100.451 76.5552 101.05 74.8717 105.243 68.8519C110.086 61.9648 114.929 58.9548 114.929 58.9548C114.929 58.9548 119.022 60.9444 120.22 70.2803C121.418 79.6161 114.08 89.4111 114.08 89.4111Z" fill="#F8AB5D"/>
<path d="M101.353 76.5378C101.353 76.5378 100.71 89.8159 98.3525 94.1209" stroke="#22272E" stroke-width="1.8" stroke-linecap="round" stroke-linejoin="round"/>
<path d="M92.3525 45.5089C92.4943 46.2427 92.8346 46.9467 93.3525 47.5776" stroke="#E26E85" stroke-width="1.8" stroke-linecap="round" stroke-linejoin="round"/>
<path d="M90.3525 63.092C90.3525 63.092 93.1025 67.1695 101.353 65.9761" stroke="#22272E" stroke-width="1.8" stroke-linecap="round" stroke-linejoin="round"/>
<path d="M83.516 104.218C83.516 104.218 82.1916 99.488 87.0818 98.3719C91.972 97.2558 97.9319 104.644 94.1624 107.567" stroke="#22272E" stroke-width="1.8" stroke-linecap="round" stroke-linejoin="round"/>
<path d="M87.3525 45.5089C87.7602 46.4263 88.3063 47.2621 88.9679 47.9811C89.4295 48.4857 90.0756 48.9902 90.3525 49.6461" stroke="#E26E85" stroke-width="1.8" stroke-linecap="round" stroke-linejoin="round"/>
<path d="M147.588 14.8268C153.303 16.2826 156.01 19.5456 155.759 27.7785C155.508 36.0113 154.406 38.9731 158.316 43.5413C162.226 48.1096 163.279 54.5352 155.859 58.6014C148.44 62.6677 132.198 63.7219 124.127 58.6014C116.056 53.481 115.104 48.0092 117.51 42.6378C119.916 37.2663 126.333 33.7523 124.929 29.8869C123.526 26.0215 125.23 30.2383 125.23 30.2383C123.901 29.1266 122.858 27.7126 122.186 26.1144C121.515 24.5162 121.235 22.7802 121.37 21.0516C121.671 14.9272 129.19 12.618 133.101 12.4172C135.106 12.3168 137.261 13.5718 140.219 14.0738C143.177 14.4754 146.134 14.4754 147.588 14.8268Z" fill="#22272E"/>
<path d="M135.039 54.8962C135.039 54.8962 124.016 55.5025 117.586 57.7761C111.156 60.0498 112.33 65.1023 111.513 70.4074C110.697 75.7126 105.441 81.1188 108.094 88.3439C110.748 95.569 113.351 99.6615 111.973 105.219C110.595 110.777 109.319 113.556 109.523 115.122C109.727 116.689 117.076 121.488 119.882 122.448C122.689 123.408 128.149 119.568 128.149 119.568C128.149 119.568 130.956 123.206 135.039 124.015C139.121 124.823 155.655 120.629 159.431 116.436C157.873 113.193 157.004 109.667 156.88 106.078C156.778 100.419 160.095 93.3964 161.319 89.506C162.544 85.6155 169.433 70.6095 166.729 65.6075C164.789 62.0203 150.297 53.9362 135.039 54.8962Z" fill="#F8AB5D"/>
<path d="M166.912 65.8919C170.659 69.9387 173.774 74.5312 176.154 79.5137C176.154 79.5137 176.405 62.0576 176.757 60.8467C180.366 61.5788 184.107 61.2817 187.556 59.9891C187.556 59.9891 189.013 73.4595 191.173 83.7011C193.332 93.9427 195.743 109.229 188.41 111.247C181.077 113.266 174.396 108.624 165.506 96.6671C156.615 84.7101 157.368 78.7569 157.368 75.7298C157.318 72.1478 162.14 62.9657 166.912 65.8919Z" fill="#F8AB5D"/>
<path d="M176.396 79.6407C176.396 79.6407 176.043 90.4109 177.353 97.2237" stroke="#22272E" stroke-width="1.8" stroke-linecap="round" stroke-linejoin="round"/>
<path d="M176.353 65.5174C176.353 65.5174 183.031 67.7431 188.353 64.1263" stroke="#22272E" stroke-width="1.8" stroke-linecap="round" stroke-linejoin="round"/>
<path d="M185.35 62.5762C185.35 62.6782 185.321 62.7779 185.266 62.8627C185.211 62.9476 185.133 63.0137 185.042 63.0527C184.951 63.0918 184.851 63.102 184.754 63.0821C184.657 63.0622 184.568 63.0131 184.499 62.9409C184.429 62.8688 184.381 62.7769 184.362 62.6768C184.343 62.5767 184.353 62.473 184.39 62.3787C184.428 62.2845 184.492 62.2039 184.574 62.1472C184.656 62.0906 184.753 62.0603 184.851 62.0603C184.919 62.0529 184.987 62.0612 185.05 62.0845C185.114 62.1078 185.172 62.1456 185.22 62.195C185.268 62.2445 185.304 62.3044 185.327 62.3703C185.349 62.4363 185.357 62.5066 185.35 62.5762V62.5762Z" stroke="#22272E" stroke-width="1.8" stroke-linecap="round" stroke-linejoin="round"/>
<path d="M186.801 59.7151C186.801 59.7151 186.297 56.0994 188.72 54.9281C191.142 53.7568 193.364 54.317 195.837 52.4837C198.31 50.6503 202.5 44.8448 202.349 43.5717C202.197 42.2986 201.289 42.8587 199.623 44.2337C198.902 44.912 198.086 45.4784 197.2 45.9143C197.2 45.9143 198.209 42.4513 197.755 39.9051C197.301 37.3588 195.585 37.0532 195.181 37.3079C194.777 37.5625 195.181 38.6319 195.08 40.669C194.979 42.706 194.373 44.3865 192.606 45.6596C192.829 44.4618 192.707 43.2245 192.253 42.0949C191.445 40.1597 190.082 38.8866 189.022 39.1921C187.962 39.4977 188.316 40.3125 188.821 41.4328C189.325 42.5532 190.133 44.5902 188.013 46.7291C187.593 47.2009 187.02 47.5064 186.397 47.5909C185.774 47.6753 185.142 47.5332 184.613 47.19C184.085 46.8468 183.695 46.3249 183.513 45.7178C183.331 45.1108 183.37 44.4583 183.621 43.8773C184.782 41.0254 186.549 40.3634 187.458 39.5995C188.366 38.8356 188.114 37.4606 186.196 37.7662C184.278 38.0717 180.996 40.4143 179.078 43.0115C177.16 45.6087 176.605 49.1226 176.554 52.5855C176.504 56.0484 176.353 60.479 176.353 60.479C176.353 60.479 177.614 62.0577 180.391 62.0577C183.167 62.0577 186.801 60.9882 186.801 59.7151Z" fill="#F4C2C9"/>
<path d="M197.353 45.5089C196.816 47.3062 196.146 49.0375 195.353 50.6804" stroke="#E26E85" stroke-width="1.8" stroke-linecap="round" stroke-linejoin="round"/>
<path d="M192.353 45.5089C192.223 47.3798 191.879 49.1551 191.353 50.6804" stroke="#E26E85" stroke-width="1.8" stroke-linecap="round" stroke-linejoin="round"/>
<path d="M180.61 111.704C180.61 111.704 179.34 109.392 182.44 105.868C185.541 102.343 192.149 102.747 192.353 106.388" stroke="#22272E" stroke-width="1.8" stroke-linecap="round" stroke-linejoin="round"/>
<path d="M132.007 53.5752C132.007 53.5752 129.194 53.4274 127.435 57.1713C125.677 60.9152 126.179 68.6 128.088 69.7823C129.997 70.9645 135.122 65.8906 135.122 65.8906C135.122 65.8906 139.443 71.6049 142.558 71.3586C145.673 71.1123 149.592 65.6443 149.341 59.6344C149.09 53.6244 146.578 52.9348 145.221 52.787C143.915 52.5407 132.007 53.5752 132.007 53.5752Z" fill="white"/>
<path d="M134.251 66.196C134.251 66.196 125.444 77.2223 125.354 79.2961C125.265 81.3698 128.26 82.0273 129.065 81.5721C129.87 81.1169 135.145 66.0443 134.251 66.196Z" fill="white"/>
<path d="M135.081 67.8123C135.081 67.8123 136.839 79.3062 137.977 81.1111C139.114 82.9159 142.733 80.2087 142.32 78.6413C141.906 77.0739 136.994 67.9073 135.185 66.5774C133.375 65.2475 135.081 67.8123 135.081 67.8123Z" fill="white"/>
<path d="M147.353 42.7442C147.353 42.7442 146.263 49.8678 147.055 55.2235C147.055 55.2235 142.351 66.1949 135.418 66.1949C132.002 66.1949 130.912 58.8113 131.506 55.8995L132.546 47.7879C132.546 47.7879 139.479 35.2046 147.353 42.7442Z" fill="#F4C2C9"/>
<path d="M141.353 50.6805C138.411 52.561 135.176 53.5013 131.745 52.77L131.353 55.852C135.078 55.0684 138.853 53.9192 141.353 50.6805Z" fill="#E26E85"/>
<path d="M125.029 27.9913C125.157 31.4477 125.018 34.9087 124.615 38.345C123.943 44.7592 124.201 48.9512 129.789 51.6785C135.377 54.4058 144.432 51.931 147.743 44.1531C151.055 36.3752 155.453 21.577 143.552 19.3548C131.652 17.1325 124.874 19.9103 125.029 27.9913Z" fill="#F4C2C9"/>
<path d="M133.382 22.5382C133.382 22.5382 135.622 30.1489 140.613 32.1029C145.603 34.057 144.839 38.788 147.335 38.2223C149.83 37.6567 151.765 35.5997 153.445 37.6052C155.126 39.6107 155.278 21.9726 146.673 18.9386C138.067 15.9047 128.952 15.7504 126.253 18.5272C123.554 21.3041 124.521 30.2003 124.521 30.2003C124.521 30.2003 130.021 28.9147 133.382 22.5382Z" fill="#22272E"/>
<path d="M147.719 37.9958C147.719 37.9958 148.772 34.6477 151.016 35.2351C153.26 35.8225 153.077 44.927 147.353 44.4571" fill="#F4C2C9"/>
<path d="M129.723 35.166C129.932 35.908 129.959 36.7383 129.797 37.5069C129.724 37.9019 129.612 38.2778 129.464 38.6217L129.241 39.1233C129.204 39.2348 129.13 39.402 129.093 39.5135C129.028 39.7804 129.007 40.0677 129.033 40.3496C129.058 40.6316 129.13 40.8996 129.241 41.1299C129.512 41.6996 129.904 42.1126 130.353 42.3003C130.102 42.4413 129.826 42.4413 129.575 42.3003C129.31 42.1859 129.069 41.9753 128.871 41.6872C128.649 41.3851 128.483 41.0009 128.39 40.5725C128.322 40.1072 128.347 39.6221 128.464 39.1791C128.529 38.9861 128.604 38.7999 128.686 38.6217C128.76 38.4545 128.834 38.343 128.908 38.1758C129.053 37.8997 129.177 37.6007 129.278 37.284C129.52 36.63 129.671 35.9097 129.723 35.166Z" fill="#22272E"/>
<path d="M134.353 45.414C135.13 45.6015 135.944 45.5096 136.667 45.1527C137.39 44.7957 137.983 44.1937 138.353 43.4404" stroke="#22272E" stroke-width="1.8" stroke-linecap="round" stroke-linejoin="round"/>
<path d="M137.353 35.166C137.353 35.166 137.532 36.8901 139.24 37.2036C139.65 37.2955 140.066 37.1822 140.44 36.8769C140.814 36.5716 141.131 36.0869 141.353 35.4794" stroke="#22272E" stroke-width="1.8" stroke-linecap="round" stroke-linejoin="round"/>
<path d="M129.353 35.166C129.353 35.166 127.686 35.166 126.353 35.166" stroke="#22272E" stroke-width="1.8" stroke-linecap="round" stroke-linejoin="round"/>
<path d="M130.344 29.844C130.441 29.2479 129.713 28.2392 128.741 27.9641C127.77 27.689 126.216 28.9728 126.362 29.523C126.508 30.0732 127.479 29.2479 128.353 29.3396C129.13 29.4313 130.247 30.3483 130.344 29.844Z" fill="#22272E"/>
<path d="M142.344 30.8783C142.441 30.2822 141.713 29.2735 140.741 28.9984C139.77 28.7233 138.216 30.0071 138.362 30.5573C138.508 31.1075 139.479 30.2822 140.353 30.3739C141.227 30.4656 142.295 31.3826 142.344 30.8783Z" fill="#22272E"/>
<path d="M151.353 38.3812C150.878 38.4565 150.461 38.6664 150.186 38.9673C150.117 39.101 150.08 39.2426 150.075 39.3859V39.9719C150.078 40.2148 150.022 40.4562 149.908 40.6835C149.852 40.815 149.758 40.9356 149.633 41.0369C149.508 41.1381 149.356 41.2175 149.186 41.2696C148.888 41.3543 148.568 41.387 148.25 41.3653C147.933 41.3435 147.626 41.2678 147.353 41.144C147.849 41.079 148.322 40.9364 148.741 40.7254C148.876 40.6134 148.976 40.4801 149.034 40.3353C149.092 40.1904 149.106 40.0376 149.075 39.8882V39.2184C149.106 38.949 149.264 38.6967 149.519 38.5068C149.789 38.3764 150.096 38.297 150.416 38.2751C150.735 38.2532 151.056 38.2896 151.353 38.3812Z" fill="#22272E"/>
<path d="M125.853 40.3375C128.338 40.3375 130.353 38.0221 130.353 35.166C130.353 32.3099 128.338 29.9945 125.853 29.9945C123.367 29.9945 121.353 32.3099 121.353 35.166C121.353 38.0221 123.367 40.3375 125.853 40.3375Z" stroke="#22272E" stroke-width="1.8" stroke-linecap="round" stroke-linejoin="round"/>
<path d="M138.853 41.3718C141.89 41.3718 144.353 39.0564 144.353 36.2003C144.353 33.3441 141.89 31.0288 138.853 31.0288C135.815 31.0288 133.353 33.3441 133.353 36.2003C133.353 39.0564 135.815 41.3718 138.853 41.3718Z" stroke="#22272E" stroke-width="1.8" stroke-linecap="round" stroke-linejoin="round"/>
<path d="M130.353 35.166C130.353 35.166 131.08 35.166 133.353 35.166" stroke="#22272E" stroke-width="1.8" stroke-linecap="round" stroke-linejoin="round"/>
<path d="M144.353 36.2003H148.353" stroke="#22272E" stroke-width="1.8" stroke-linecap="round" stroke-linejoin="round"/>
<path d="M149.913 42.6752L148.417 45.678C148.374 45.7666 148.352 45.8667 148.353 45.9683C148.353 46.07 148.377 46.1696 148.422 46.2572C148.466 46.3449 148.53 46.4174 148.606 46.4676C148.683 46.5178 148.769 46.5439 148.857 46.5433H151.848C151.936 46.5439 152.022 46.5178 152.099 46.4676C152.175 46.4174 152.239 46.3449 152.283 46.2572C152.328 46.1696 152.352 46.07 152.353 45.9683C152.353 45.8667 152.331 45.7666 152.288 45.678L150.792 42.6752C150.744 42.5923 150.678 42.5244 150.601 42.4775C150.525 42.4306 150.439 42.4061 150.353 42.4061C150.266 42.4061 150.18 42.4306 150.104 42.4775C150.027 42.5244 149.962 42.5923 149.913 42.6752Z" fill="#FFE779"/>
<path d="M220.353 144.801L221.558 155.823C221.558 156.617 225.728 157.213 230.853 157.213C235.977 157.213 240.147 156.567 240.147 155.823L241.353 144.801H220.353Z" fill="#22272E"/>
<path d="M241.353 144.284C241.353 145.157 236.63 145.836 230.853 145.836C225.075 145.836 220.353 145.157 220.353 144.284C220.353 143.411 225.075 142.733 230.853 142.733C236.63 142.733 241.353 143.46 241.353 144.284Z" fill="#FFE779"/>
<path d="M228.424 144.215C228.424 144.215 222.795 142.006 223.398 137.689C224.001 133.372 228.173 142.307 229.228 140.952C230.284 139.596 228.927 133.02 231.239 132.418C233.551 131.816 232.948 141.052 232.948 141.052C234.379 140.329 235.672 139.36 236.768 138.191C238.226 136.484 240.337 140.299 234.355 144.215C232.456 144.997 230.324 144.997 228.424 144.215V144.215Z" fill="#6DAFA7"/>
<path d="M278.353 141.698C278.353 142.312 278.177 142.912 277.847 143.422C277.517 143.933 277.049 144.33 276.501 144.565C275.952 144.8 275.349 144.861 274.767 144.742C274.185 144.622 273.651 144.326 273.231 143.893C272.812 143.459 272.526 142.906 272.41 142.304C272.294 141.702 272.354 141.078 272.581 140.511C272.808 139.944 273.192 139.459 273.686 139.119C274.179 138.778 274.759 138.596 275.353 138.596C276.143 138.612 276.897 138.944 277.457 139.522C278.016 140.101 278.337 140.881 278.353 141.698V141.698Z" fill="#FFE779"/>
<path d="M70.3525 156.12C61.4471 156.255 48.9997 156.12 45.1541 156.075C40.7014 156.39 35.6921 154.864 32.3525 149.973C32.3525 149.973 35.6415 150.422 44.0916 150.466C52.5416 150.511 59.2713 149.973 59.2713 149.973C59.5749 150.422 59.8785 150.825 60.1821 151.229C61.3676 152.657 62.8937 153.836 64.6516 154.682C66.4096 155.527 68.3561 156.018 70.3525 156.12Z" fill="#22272E"/>
<path d="M84.3525 150.426C82.8246 150.851 81.4098 151.667 80.2235 152.807C77.5309 155.188 74.126 156.38 70.6751 156.151C68.6398 156.052 66.6519 155.444 64.863 154.373C63.0741 153.302 61.5314 151.797 60.3525 149.973C68.3273 150.854 76.3549 151.006 84.3525 150.426V150.426Z" fill="white"/>
</svg>
