<svg width="3596" height="1341" viewBox="0 0 3596 1341" fill="none" xmlns="http://www.w3.org/2000/svg">
<path d="M1560.98 550.171H1658.28V849.03C1658.28 882.586 1650.27 911.947 1634.24 937.115C1618.36 962.282 1596.11 981.906 1567.5 995.987C1538.89 1009.92 1505.56 1016.89 1467.51 1016.89C1429.31 1016.89 1395.9 1009.92 1367.29 995.987C1338.68 981.906 1316.43 962.282 1300.55 937.115C1284.67 911.947 1276.73 882.586 1276.73 849.03V550.171H1374.03V840.716C1374.03 858.243 1377.85 873.822 1385.49 887.454C1393.28 901.087 1404.21 911.798 1418.3 919.587C1432.38 927.377 1448.78 931.272 1467.51 931.272C1486.38 931.272 1502.79 927.377 1516.72 919.587C1530.8 911.798 1541.66 901.087 1549.3 887.454C1557.09 873.822 1560.98 858.243 1560.98 840.716V550.171Z" fill="#FC653C"/>
<path d="M1823.36 810.83V1010.37H1727.64V665.22H1818.87V726.116H1822.92C1830.56 706.042 1843.36 690.163 1861.34 678.478C1879.32 666.643 1901.11 660.726 1926.73 660.726C1950.7 660.726 1971.6 665.969 1989.42 676.456C2007.25 686.942 2021.11 701.922 2030.99 721.397C2040.88 740.721 2045.82 763.791 2045.82 790.606V1010.37H1950.1V807.684C1950.25 786.562 1944.86 770.083 1933.92 758.249C1922.98 746.264 1907.93 740.272 1888.75 740.272C1875.87 740.272 1864.49 743.043 1854.6 748.586C1844.86 754.129 1837.22 762.218 1831.68 772.854C1826.29 783.341 1823.51 795.999 1823.36 810.83Z" fill="#FC653C"/>
<path d="M2088.81 1010.37V665.22H2184.54V1010.37H2088.81ZM2136.9 620.729C2122.67 620.729 2110.46 616.01 2100.27 606.572C2090.23 596.985 2085.22 585.525 2085.22 572.192C2085.22 559.009 2090.23 547.699 2100.27 538.261C2110.46 528.674 2122.67 523.88 2136.9 523.88C2151.13 523.88 2163.26 528.674 2173.3 538.261C2183.49 547.699 2188.58 559.009 2188.58 572.192C2188.58 585.525 2183.49 596.985 2173.3 606.572C2163.26 616.01 2151.13 620.729 2136.9 620.729Z" fill="#FC653C"/>
<path d="M2258.76 1010.37V550.171H2356.05V740.047H2553.57V550.171H2650.64V1010.37H2553.57V820.267H2356.05V1010.37H2258.76Z" fill="#373435"/>
<path d="M2878.9 1017.11C2843.39 1017.11 2812.83 1009.92 2787.22 995.538C2761.75 981.007 2742.13 960.484 2728.35 933.969C2714.56 907.304 2707.67 875.77 2707.67 839.367C2707.67 803.864 2714.56 772.705 2728.35 745.89C2742.13 719.075 2761.53 698.177 2786.54 683.197C2811.71 668.216 2841.22 660.726 2875.08 660.726C2897.85 660.726 2919.05 664.396 2938.67 671.737C2958.44 678.927 2975.67 689.788 2990.35 704.319C3005.18 718.85 3016.72 737.126 3024.96 759.147C3033.2 781.019 3037.32 806.635 3037.32 835.997V862.287H2745.87V802.965H2947.21C2947.21 789.183 2944.21 776.974 2938.22 766.338C2932.23 755.702 2923.91 747.388 2913.28 741.396C2902.79 735.254 2890.58 732.183 2876.65 732.183C2862.12 732.183 2849.24 735.553 2838 742.294C2826.92 748.886 2818.23 757.799 2811.94 769.034C2805.64 780.12 2802.42 792.479 2802.27 806.111V862.512C2802.27 879.59 2805.42 894.345 2811.71 906.779C2818.15 919.213 2827.22 928.8 2838.9 935.542C2850.59 942.283 2864.44 945.653 2880.47 945.653C2891.11 945.653 2900.84 944.155 2909.68 941.159C2918.52 938.163 2926.09 933.669 2932.38 927.677C2938.67 921.685 2943.46 914.344 2946.76 905.656L3035.29 911.498C3030.8 932.77 3021.59 951.346 3007.66 967.225C2993.87 982.955 2976.05 995.238 2954.17 1004.08C2932.45 1012.77 2907.36 1017.11 2878.9 1017.11Z" fill="#373435"/>
<path d="M3179.49 550.171V1010.37H3083.77V550.171H3179.49Z" fill="#373435"/>
<path d="M3248.93 1139.8V665.22H3343.31V723.194H3347.58C3351.77 713.907 3357.84 704.469 3365.78 694.881C3373.87 685.144 3384.36 677.055 3397.24 670.613C3410.27 664.022 3426.45 660.726 3445.77 660.726C3470.94 660.726 3494.16 667.318 3515.43 680.5C3536.71 693.533 3553.71 713.232 3566.44 739.598C3579.18 765.814 3585.54 798.696 3585.54 838.244C3585.54 876.744 3579.33 909.251 3566.89 935.766C3554.61 962.132 3537.83 982.131 3516.56 995.763C3495.43 1009.25 3471.77 1015.99 3445.55 1015.99C3426.97 1015.99 3411.17 1012.92 3398.14 1006.77C3385.25 1000.63 3374.69 992.916 3366.45 983.629C3358.21 974.191 3351.92 964.678 3347.58 955.091H3344.66V1139.8H3248.93ZM3342.63 837.794C3342.63 858.318 3345.48 876.219 3351.17 891.499C3356.87 906.779 3365.11 918.689 3375.89 927.227C3386.68 935.616 3399.79 939.811 3415.21 939.811C3430.79 939.811 3443.98 935.542 3454.76 927.003C3465.55 918.314 3473.71 906.33 3479.26 891.05C3484.95 875.62 3487.79 857.868 3487.79 837.794C3487.79 817.871 3485.02 800.343 3479.48 785.213C3473.94 770.083 3465.77 758.249 3454.99 749.71C3444.2 741.171 3430.94 736.901 3415.21 736.901C3399.64 736.901 3386.45 741.021 3375.67 749.26C3365.03 757.5 3356.87 769.184 3351.17 784.314C3345.48 799.445 3342.63 817.271 3342.63 837.794Z" fill="#373435"/>
<path d="M1050.68 645.728C1053.66 607.744 1048.69 571.411 1035.75 537.556C1022.82 502.049 1000.93 469.02 972.075 440.945C944.216 413.695 909.392 389.749 869.594 372.408C831.785 356.719 789.002 345.985 743.234 342.682C697.466 339.379 653.688 343.507 611.9 354.242C570.111 364.977 530.313 383.143 496.484 407.089L495.489 407.915C461.661 431.036 433.802 459.937 413.903 492.966C394.004 524.344 381.069 559.025 377.089 597.009V598.661C376.094 607.744 368.135 666.371 394.999 750.597C419.873 829.868 475.59 931.433 596.975 1035.48L675.577 1112.27C670.602 1112.27 666.622 1112.27 661.647 1111.44C648.713 1110.62 635.779 1108.14 622.844 1103.19C610.905 1099.06 599.96 1092.45 590.01 1084.2C443.752 967.766 378.084 850.511 349.23 759.68C321.372 670.5 329.331 606.092 330.326 593.706C335.301 550.768 350.225 511.132 372.114 474.8C394.999 437.642 426.837 404.612 465.641 378.188L466.636 377.363C505.439 350.113 549.217 329.47 597.97 317.084C644.733 304.698 695.476 299.743 747.214 303.872C798.952 307.175 847.705 319.561 891.483 338.553C936.256 357.545 976.054 384.794 1007.89 416.172C1040.73 448.376 1065.6 485.535 1080.53 525.996C1095.45 564.805 1101.42 606.092 1096.44 649.031V649.857C1095.45 662.243 1089.48 726.65 1043.71 810.876C995.954 895.927 908.397 999.97 740.249 1093.28L735.274 1092.45L774.078 1056.95L764.128 1032.17C890.488 952.077 961.13 865.374 1000.93 794.361C1044.71 715.09 1049.68 656.462 1049.68 647.379L1050.68 645.728Z" fill="#FC653C"/>
<path d="M853.675 1286.5L1002.92 1184.11C1013.86 1176.68 1020.83 1165.94 1021.82 1154.38C1022.82 1143.65 1019.83 1132.09 1010.88 1123L1009.88 1121.35C1000.93 1112.27 986.999 1106.49 974.065 1105.66C960.135 1104.84 946.206 1108.14 934.266 1115.57L867.604 1161.81L789.002 1084.2L825.816 1060.25L873.574 1107.32L904.417 1085.85C926.307 1070.98 952.175 1065.2 978.044 1066.85C1000.93 1069.33 1021.82 1076.76 1038.74 1090.8H1039.73L1045.7 1097.41C1063.61 1114.75 1070.58 1137.04 1068.59 1157.69C1065.6 1179.16 1053.66 1199.8 1032.77 1214.66L847.705 1341L529.318 1028.87L555.187 1010.7C564.141 1025.57 575.086 1043.73 575.086 1043.73L596.975 1035.48L853.675 1286.5Z" fill="#FC653C"/>
<path d="M381.069 1160.99L502.454 1285.68C512.404 1294.76 525.338 1300.54 538.273 1302.19C552.202 1303.02 566.131 1299.71 577.076 1293.11L578.071 1292.28C590.01 1284.85 595.98 1273.29 597.97 1262.55C598.965 1250.99 594.985 1239.43 586.031 1229.53L531.308 1173.37L604.935 1128.79L633.789 1156.86C622.844 1163.47 607.92 1172.55 596.975 1179.16L621.849 1204.75C639.758 1222.92 646.723 1245.21 643.738 1265.86C641.748 1284.85 631.799 1302.19 614.884 1316.23V1317.05L607.92 1322.01C586.031 1336.87 559.167 1342.65 534.293 1340.17C508.424 1337.7 483.55 1327.79 466.636 1310.45L315.402 1156.03L499.469 1028.87L529.318 1058.6L381.069 1160.99ZM678.562 1084.2L770.098 1028.87L788.007 1065.2C761.143 1080.07 734.28 1096.58 707.416 1113.1L678.562 1084.2Z" fill="#FC653C"/>
<path d="M730.3 467.368C780.048 471.497 822.831 491.315 852.68 521.041C883.523 550.768 899.443 589.578 895.463 630.865C890.488 672.151 866.609 708.484 830.791 733.256C794.972 758.028 748.209 771.24 698.461 767.937C648.713 763.808 604.935 743.991 575.086 714.264C545.237 685.363 529.318 645.728 533.298 604.441C537.278 563.154 562.152 526.821 597.97 502.049C632.794 477.277 680.552 464.065 730.3 467.368ZM817.856 545.813C794.972 524.344 763.133 509.481 726.32 506.178C688.511 503.701 653.688 513.61 627.819 531.776C600.955 550.768 583.046 577.191 580.061 607.744C577.076 639.122 589.016 668.023 610.905 689.492C632.794 711.787 665.627 726.65 702.441 729.127C739.254 731.605 774.078 721.696 800.942 703.53C826.811 685.363 844.72 658.114 848.7 627.562C851.685 597.009 839.745 568.108 817.856 545.813Z" fill="#FC653C"/>
<path fill-rule="evenodd" clip-rule="evenodd" d="M0 387.272L110.44 270.842L164.168 352.591L0 387.272ZM325.352 43.7642L194.017 183.314L120.39 227.078C115.415 230.381 113.425 236.161 116.41 240.29L200.982 366.628C197.997 371.583 197.002 378.188 200.982 383.143C204.962 388.923 211.926 392.226 218.891 392.226C216.901 394.703 214.911 398.006 213.916 401.309L240.78 453.331C249.735 454.982 259.684 454.156 268.639 450.028C277.594 445.899 284.558 439.293 288.538 431.861L248.74 384.794C244.76 383.969 240.78 383.969 237.795 383.969C240.78 378.188 241.775 371.583 237.795 366.628C234.81 360.848 227.846 358.371 221.876 357.545L211.926 342.682L268.639 331.121L245.755 297.266L243.765 288.183C246.75 278.274 249.735 267.539 254.709 257.631C277.594 208.912 325.352 166.799 384.054 139.55C442.757 112.3 512.404 99.0887 577.076 108.998C591.006 110.649 604.935 113.952 617.869 118.081L625.829 123.861L647.718 157.716L849.695 0L325.352 43.7642ZM361.17 415.347C437.782 320.387 547.227 274.145 684.532 268.365C655.678 224.601 627.819 183.314 599.96 140.376C470.616 99.0887 299.483 181.663 276.599 287.357C300.478 323.69 337.291 379.014 361.17 415.347Z" fill="#373435"/>
</svg>
